<?xml version="1.0" standalone="no"?>
<!DOCTYPE svg PUBLIC "-//W3C//DTD SVG 1.1//EN" "http://www.w3.org/Graphics/SVG/1.1/DTD/svg11.dtd" >
<svg xmlns="http://www.w3.org/2000/svg">
<metadata>Generated by IcoMoon</metadata>
<defs>
<font id="intaefont" horiz-adv-x="1024">
<font-face units-per-em="1024" ascent="960" descent="-64" />
<missing-glyph horiz-adv-x="1024" />
<glyph unicode="&#x20;" horiz-adv-x="512" d="" />
<glyph unicode="&#xe900;" glyph-name="intaefont-icon0" horiz-adv-x="535" d="M495.335-58.445c4.195-4.229 10.009-6.847 16.434-6.847s12.239 2.618 16.432 6.845l0.002 0.002c4.229 4.195 6.847 10.009 6.847 16.434s-2.618 12.239-6.845 16.432l-0.002 0.002-472.42 473.345 472.882 472.651c4.206 4.206 6.807 10.016 6.807 16.434 0 12.836-10.405 23.241-23.241 23.241-6.418 0-12.228-2.601-16.434-6.807l-489.085-489.085c-4.229-4.195-6.847-10.009-6.847-16.434s2.618-12.239 6.845-16.432l0.002-0.002z" />
<glyph unicode="&#xe901;" glyph-name="intaefont-icon1" horiz-adv-x="544" d="M6.712-58.445c4.195-4.229 10.009-6.847 16.434-6.847s12.239 2.618 16.432 6.845l0.002 0.002 489.085 490.242c4.229 4.195 6.847 10.009 6.847 16.434s-2.618 12.239-6.845 16.432l-488.624 488.624c-4.206 4.206-10.016 6.807-16.434 6.807-12.836 0-23.241-10.405-23.241-23.241 0-6.418 2.601-12.228 6.807-16.434l472.42-472.188-472.882-472.651c-4.588-4.243-7.452-10.293-7.452-17.013s2.863-12.77 7.436-16.999l0.015-0.014z" />
<glyph unicode="&#xe902;" glyph-name="intaefont-icon2" d="M495.321 187.343c4.19-4.224 9.998-6.839 16.415-6.839s12.225 2.615 16.414 6.838l0.002 0.002 489.215 488.060c4.104 4.245 6.633 10.035 6.633 16.415 0 13.048-10.578 23.627-23.627 23.627-6.668 0-12.691-2.762-16.987-7.205l-0.006-0.007-471.644-471.875-472.107 472.338c-4.201 4.201-10.005 6.799-16.415 6.799-12.821 0-23.215-10.393-23.215-23.215 0-6.41 2.599-12.214 6.799-16.415v0z" />
<glyph unicode="&#xe903;" glyph-name="intaefont-icon3" d="M39.667 187.544l472.082 472.313 472.545-472.776c4.194-4.228 10.007-6.845 16.43-6.845s12.236 2.617 16.429 6.844l0.002 0.002c4.228 4.194 6.845 10.007 6.845 16.43s-2.617 12.236-6.844 16.429l-488.977 488.977c-4.194 4.228-10.007 6.845-16.43 6.845s-12.236-2.617-16.429-6.844l-488.514-488.514c-4.205-4.205-6.806-10.014-6.806-16.43 0-12.833 10.403-23.236 23.236-23.236 6.416 0 12.225 2.601 16.43 6.806v0z" />
<glyph unicode="&#xe904;" glyph-name="intaefont-icon4" d="M22.755 425.245h466.49v-466.49c0-12.566 10.189-22.755 22.755-22.755s22.755 10.189 22.755 22.755v0 466.49h466.49c12.566 0 22.755 10.189 22.755 22.755s-10.189 22.755-22.755 22.755v0h-466.49v466.49c0 12.566-10.189 22.755-22.755 22.755s-22.755-10.189-22.755-22.755v0-466.49h-466.49c-12.566 0-22.755-10.189-22.755-22.755s10.189-22.755 22.755-22.755v0z" />
<glyph unicode="&#xe905;" glyph-name="intaefont-icon5" d="M7.614-56.386c4.759-4.797 11.354-7.767 18.642-7.767s13.883 2.97 18.64 7.765l467.104 467.366 467.102-467.364c4.759-4.797 11.354-7.767 18.642-7.767s13.883 2.97 18.64 7.765l0.002 0.002c4.797 4.759 7.767 11.354 7.767 18.642s-2.97 13.883-7.765 18.64l-467.366 467.104 467.364 467.102c4.771 4.771 7.722 11.362 7.722 18.642 0 14.56-11.803 26.364-26.364 26.364-7.28 0-13.871-2.951-18.642-7.722l-467.102-467.364-467.102 467.364c-4.771 4.771-11.362 7.722-18.642 7.722-14.56 0-26.364-11.803-26.364-26.364 0-7.28 2.951-13.871 7.722-18.642l467.364-467.102-467.364-467.102c-4.797-4.759-7.767-11.354-7.767-18.642s2.97-13.883 7.765-18.64l0.002-0.002z" />
<glyph unicode="&#xe906;" glyph-name="intaefont-icon6" d="M383.936 132.035c5.067-5.026 12.045-8.133 19.749-8.133 0.057 0 0.114 0 0.171 0.001h-0.009c0.048 0 0.105-0.001 0.162-0.001 7.704 0 14.682 3.106 19.751 8.135l591.993 591.993c5.095 5.095 8.247 12.135 8.247 19.911 0 15.551-12.607 28.158-28.158 28.158-7.776 0-14.815-3.152-19.911-8.247l-572.084-572.365-355.87 356.151c-5.083 5.123-12.126 8.295-19.911 8.295s-14.828-3.171-19.909-8.293l-0.002-0.002c-5.040-5.070-8.155-12.056-8.155-19.77s3.115-14.7 8.156-19.772l-0.001 0.001z" />
<glyph unicode="&#xe907;" glyph-name="intaefont-icon7" d="M487.037-49.305c4.111-4.078 9.773-6.599 16.023-6.599 0.046 0 0.092 0 0.139 0h-0.007c0.039 0 0.086 0 0.132 0 6.251 0 11.912 2.52 16.025 6.6l-0.001-0.001c4.157 4.124 6.73 9.839 6.73 16.154s-2.573 12.031-6.729 16.152l-0.002 0.002-439.126 440.263h921.026c12.565 0 22.752 10.187 22.752 22.752s-10.187 22.752-22.752 22.752v0h-920.116c-2.633-0.088-5.124-0.581-7.451-1.418l0.17 0.053 445.952 445.497c4.134 4.134 6.691 9.846 6.691 16.154 0 12.618-10.228 22.846-22.846 22.846-6.309 0-12.020-2.557-16.154-6.691l-480.763-480.763c-4.157-4.124-6.73-9.839-6.73-16.154s2.573-12.031 6.729-16.152l0.002-0.002zM59.742 451.254c-0.764-2.154-1.254-4.642-1.363-7.229l-0.002-0.052-3.413 3.413z" />
<glyph unicode="&#xe908;" glyph-name="intaefont-icon8" d="M22.752 427.997h920.116c2.633 0.088 5.124 0.581 7.451 1.418l-0.17-0.053-445.952-445.724c-4.157-4.124-6.73-9.839-6.73-16.154s2.573-12.031 6.729-16.152l0.002-0.002c4.124-4.157 9.839-6.73 16.154-6.73s12.031 2.573 16.152 6.729l480.765 480.765c4.157 4.124 6.73 9.839 6.73 16.154s-2.573 12.031-6.729 16.152l-480.31 480.31c-4.134 4.134-9.846 6.691-16.154 6.691-12.618 0-22.846-10.228-22.846-22.846 0-6.309 2.557-12.020 6.691-16.154l439.126-438.898h-921.026c-12.565 0-22.752-10.187-22.752-22.752s10.187-22.752 22.752-22.752v0zM965.621 450.75l3.413-3.413-4.778-4.778c0.764 2.154 1.254 4.642 1.363 7.229l0.002 0.052z" />
<glyph unicode="&#xe909;" glyph-name="intaefont-icon9" horiz-adv-x="1229" d="M29.257 901.486h1170.286c16.158 0 29.257 13.099 29.257 29.257s-13.099 29.257-29.257 29.257v0h-1170.286c-16.158 0-29.257-13.099-29.257-29.257s13.099-29.257 29.257-29.257v0zM29.257 418.743h732.891c16.158 0 29.257 13.099 29.257 29.257s-13.099 29.257-29.257 29.257v0h-732.891c-16.158 0-29.257-13.099-29.257-29.257s13.099-29.257 29.257-29.257v0zM29.257-64h1170.286c16.158 0 29.257 13.099 29.257 29.257s-13.099 29.257-29.257 29.257v0h-1170.286c-16.158 0-29.257-13.099-29.257-29.257s13.099-29.257 29.257-29.257v0z" />
<glyph unicode="&#xe90a;" glyph-name="intaefont-icon10" horiz-adv-x="1200" d="M29.257 901.486h1141.029c16.158 0 29.257 13.099 29.257 29.257s-13.099 29.257-29.257 29.257v0h-1141.029c-16.158 0-29.257-13.099-29.257-29.257s13.099-29.257 29.257-29.257v0zM29.257 418.743h1138.103c16.158 0 29.257 13.099 29.257 29.257s-13.099 29.257-29.257 29.257v0h-1138.103c-16.158 0-29.257-13.099-29.257-29.257s13.099-29.257 29.257-29.257v0zM29.257-64h1141.029c16.158 0 29.257 13.099 29.257 29.257s-13.099 29.257-29.257 29.257v0h-1141.029c-16.158 0-29.257-13.099-29.257-29.257s13.099-29.257 29.257-29.257v0z" />
<glyph unicode="&#xe90b;" glyph-name="intaefont-icon11" horiz-adv-x="1229" d="M29.257-64h1170.286c16.158 0 29.257 13.099 29.257 29.257s-13.099 29.257-29.257 29.257v0h-1170.286c-16.158 0-29.257-13.099-29.257-29.257s13.099-29.257 29.257-29.257v0zM1199.543 477.257h-731.429c-16.158 0-29.257-13.099-29.257-29.257s13.099-29.257 29.257-29.257v0h731.429c16.158 0 29.257 13.099 29.257 29.257s-13.099 29.257-29.257 29.257v0zM29.257 901.486h1170.286c16.158 0 29.257 13.099 29.257 29.257s-13.099 29.257-29.257 29.257v0h-1170.286c-16.158 0-29.257-13.099-29.257-29.257s13.099-29.257 29.257-29.257v0z" />
<glyph unicode="&#xe90c;" glyph-name="intaefont-icon12" horiz-adv-x="546" d="M487.781-54.041c6.143-6.135 14.625-9.929 23.993-9.929s17.85 3.794 23.993 9.93v0c6.19 6.117 10.024 14.607 10.024 23.993s-3.834 17.876-10.021 23.99l-452.7 452.7 453.149 455.413c6.657 6.215 10.806 15.043 10.806 24.84 0 18.751-15.201 33.952-33.952 33.952-9.797 0-18.625-4.149-24.822-10.787l-0.018-0.020-478.274-478.274c-6.19-6.117-10.024-14.607-10.024-23.993s3.834-17.876 10.021-23.99l0.003-0.003z" />
<glyph unicode="&#xe90d;" glyph-name="intaefont-icon13" horiz-adv-x="546" d="M9.959-54.041c6.143-6.135 14.625-9.929 23.993-9.929s17.85 3.794 23.993 9.93v0l478.274 478.274c6.19 6.117 10.024 14.607 10.024 23.993s-3.834 17.876-10.021 23.99l-477.824 477.824c-6.047 5.646-14.192 9.112-23.146 9.112-18.751 0-33.952-15.201-33.952-33.952 0-8.954 3.466-17.099 9.131-23.166l-0.018 0.020 453.828-453.828-454.281-454.281c-6.19-6.117-10.024-14.607-10.024-23.993s3.834-17.876 10.021-23.99l0.003-0.003z" />
<glyph unicode="&#xe90e;" glyph-name="intaefont-icon14" d="M488.194 184.843c6.153-6.146 14.649-9.946 24.033-9.946s17.88 3.801 24.033 9.946l478.613 478.613c5.655 6.057 9.127 14.215 9.127 23.184 0 18.782-15.226 34.008-34.008 34.008-8.969 0-17.128-3.472-23.204-9.146l0.020 0.018-453.447-454.581-456.167 455.034c-6.057 5.655-14.215 9.127-23.184 9.127-18.782 0-34.008-15.226-34.008-34.008 0-8.969 3.472-17.128 9.146-23.204l-0.018 0.020z" />
<glyph unicode="&#xe90f;" glyph-name="intaefont-icon15" d="M57.141 185.074l454.176 453.043 454.629-453.496c6.148-6.14 14.636-9.937 24.011-9.937s17.864 3.797 24.012 9.937l-0.001-0.001c6.195 6.122 10.032 14.619 10.032 24.011s-3.837 17.889-10.028 24.008l-478.643 478.643c-6.122 6.195-14.619 10.032-24.011 10.032s-17.889-3.837-24.008-10.028l-478.19-478.19c-5.65-6.052-9.119-14.202-9.119-23.164 0-18.766 15.212-33.978 33.978-33.978 8.961 0 17.113 3.469 23.183 9.138l-0.020-0.018z" />
<glyph unicode="&#xe910;" glyph-name="intaefont-icon16" d="M33.391 414.609h445.217v-445.217c0-18.442 14.95-33.391 33.391-33.391s33.391 14.95 33.391 33.391v0 445.217h445.217c18.442 0 33.391 14.95 33.391 33.391s-14.95 33.391-33.391 33.391v0h-445.217v445.217c0 18.442-14.95 33.391-33.391 33.391s-33.391-14.95-33.391-33.391v0-445.217h-445.217c-18.442 0-33.391-14.95-33.391-33.391s14.95-33.391 33.391-33.391v0z" />
<glyph unicode="&#xe911;" glyph-name="intaefont-icon17" d="M11.264-52.736c6.947-6.939 16.541-11.23 27.136-11.23s20.189 4.291 27.136 11.231v0l446.464 446.464 446.464-446.464c6.947-6.939 16.541-11.23 27.136-11.23s20.189 4.291 27.136 11.231v0c7.001 6.919 11.337 16.521 11.337 27.136s-4.336 20.217-11.334 27.132l-446.468 446.468 446.464 446.464c6.386 6.839 10.306 16.051 10.306 26.178 0 21.208-17.192 38.4-38.4 38.4-10.127 0-19.339-3.921-26.2-10.327l0.022 0.021-446.464-446.464-446.464 446.464c-6.839 6.386-16.051 10.306-26.178 10.306-21.208 0-38.4-17.192-38.4-38.4 0-10.127 3.921-19.339 10.327-26.2l-0.021 0.022 446.464-446.464-446.464-446.464c-7.001-6.919-11.337-16.521-11.337-27.136s4.336-20.217 11.334-27.132l0.004-0.004z" />
<glyph unicode="&#xe912;" glyph-name="intaefont-icon18" d="M375.938 130.342c7.332-7.381 17.488-11.95 28.71-11.95 0.027 0 0.054 0 0.081 0h-0.004c0.276-0.006 0.602-0.010 0.928-0.010 11.299 0 21.53 4.569 28.947 11.961l-0.001-0.001 572.209 573.296c10.457 7.472 17.193 19.571 17.193 33.244 0 22.498-18.238 40.736-40.736 40.736-13.33 0-25.165-6.403-32.596-16.301l-0.075-0.105-544.509-543.151-336.482 333.766c-7.399 7.296-17.567 11.802-28.787 11.802s-21.387-4.506-28.792-11.807l0.004 0.004c-7.427-7.34-12.027-17.526-12.027-28.787s4.6-21.447 12.023-28.783l0.004-0.004z" />
<glyph unicode="&#xe913;" glyph-name="intaefont-icon19" horiz-adv-x="1041" d="M487.781-54.041c6.151-6.126 14.625-9.924 23.986-9.959h0.007c18.738 0.017 33.922 15.211 33.922 33.952 0 9.368-3.794 17.85-9.93 23.993v0l-417.386 417.386h888.87c18.751 0 33.952 15.201 33.952 33.952s-15.201 33.952-33.952 33.952v0h-894.076l423.045 422.819c6.657 6.215 10.806 15.043 10.806 24.84 0 18.751-15.201 33.952-33.952 33.952-9.797 0-18.625-4.149-24.822-10.787l-0.018-0.020-478.274-478.274c-6.19-6.117-10.024-14.607-10.024-23.993s3.834-17.876 10.021-23.99l0.003-0.003z" />
<glyph unicode="&#xe914;" glyph-name="intaefont-icon20" horiz-adv-x="1041" d="M33.952 416.764h894.076l-423.045-422.819c-6.19-6.117-10.024-14.607-10.024-23.993s3.834-17.876 10.021-23.99l0.003-0.003c6.143-6.135 14.625-9.929 23.993-9.929s17.85 3.794 23.993 9.93v0l478.274 478.274c6.19 6.117 10.024 14.607 10.024 23.993s-3.834 17.876-10.021 23.99l-477.824 477.824c-6.047 5.646-14.192 9.112-23.146 9.112-18.751 0-33.952-15.201-33.952-33.952 0-8.954 3.466-17.099 9.131-23.166l-0.018 0.020 417.386-417.386h-888.87c-18.751 0-33.952-15.201-33.952-33.952s15.201-33.952 33.952-33.952v0z" />
<glyph unicode="&#xe915;" glyph-name="intaefont-icon21" horiz-adv-x="1223" d="M42.667 874.667h1137.778c23.564 0 42.667 19.103 42.667 42.667s-19.103 42.667-42.667 42.667v0h-1137.778c-23.564 0-42.667-19.103-42.667-42.667s19.103-42.667 42.667-42.667v0zM42.667 405.333h712.533c23.564 0 42.667 19.103 42.667 42.667s-19.103 42.667-42.667 42.667v0h-712.533c-23.564 0-42.667-19.103-42.667-42.667s19.103-42.667 42.667-42.667v0zM42.667-64h1137.778c23.564 0 42.667 19.103 42.667 42.667s-19.103 42.667-42.667 42.667v0h-1137.778c-23.564 0-42.667-19.103-42.667-42.667s19.103-42.667 42.667-42.667v0z" />
<glyph unicode="&#xe916;" glyph-name="intaefont-icon22" horiz-adv-x="1195" d="M42.667 874.667h1109.333c23.564 0 42.667 19.103 42.667 42.667s-19.103 42.667-42.667 42.667v0h-1109.333c-23.564 0-42.667-19.103-42.667-42.667s19.103-42.667 42.667-42.667v0zM42.667 405.333h1106.489c23.564 0 42.667 19.103 42.667 42.667s-19.103 42.667-42.667 42.667v0h-1106.489c-23.564 0-42.667-19.103-42.667-42.667s19.103-42.667 42.667-42.667v0zM42.667-64h1109.333c23.564 0 42.667 19.103 42.667 42.667s-19.103 42.667-42.667 42.667v0h-1109.333c-23.564 0-42.667-19.103-42.667-42.667s19.103-42.667 42.667-42.667v0z" />
<glyph unicode="&#xe917;" glyph-name="intaefont-icon23" horiz-adv-x="1223" d="M42.667-64h1137.778c23.564 0 42.667 19.103 42.667 42.667s-19.103 42.667-42.667 42.667v0h-1137.778c-23.564 0-42.667-19.103-42.667-42.667s19.103-42.667 42.667-42.667v0zM1180.444 490.667h-711.111c-23.564 0-42.667-19.103-42.667-42.667s19.103-42.667 42.667-42.667v0h711.111c23.564 0 42.667 19.103 42.667 42.667s-19.103 42.667-42.667 42.667v0zM42.667 874.667h1137.778c23.564 0 42.667 19.103 42.667 42.667s-19.103 42.667-42.667 42.667v0h-1137.778c-23.564 0-42.667-19.103-42.667-42.667s19.103-42.667 42.667-42.667v0z" />
<glyph unicode="&#xe918;" glyph-name="intaefont-icon24" horiz-adv-x="557" d="M480.554-50.934c8.006-7.959 19.041-12.879 31.225-12.879s23.219 4.92 31.227 12.882l-0.002-0.002c7.959 8.006 12.879 19.041 12.879 31.225s-4.92 23.219-12.882 31.227l-436.040 436.261 436.484 436.706c7.959 8.006 12.879 19.041 12.879 31.225s-4.92 23.219-12.882 31.227l0.002-0.002c-8.006 7.959-19.041 12.879-31.225 12.879s-23.219-4.92-31.227-12.882l-467.929-467.929c-7.959-8.006-12.879-19.041-12.879-31.225s4.92-23.219 12.882-31.227l-0.002 0.002z" />
<glyph unicode="&#xe919;" glyph-name="intaefont-icon25" horiz-adv-x="557" d="M13.066-50.934c7.981-8.028 19.016-13.013 31.215-13.066h0.010c12.209 0.053 23.244 5.038 31.223 13.064l467.933 467.711c8.025 8.017 12.99 19.096 12.99 31.336s-4.964 23.319-12.989 31.335v0l-467.488 467.488c-7.837 7.146-18.306 11.523-29.798 11.523-24.461 0-44.291-19.83-44.291-44.291 0-11.437 4.335-21.861 11.451-29.72l-0.034 0.038 436.263-436.263-436.484-436.706c-7.959-8.006-12.879-19.041-12.879-31.225s4.92-23.219 12.882-31.227l-0.002 0.002z" />
<glyph unicode="&#xe91a;" glyph-name="intaefont-icon26" d="M481.624 182.362c8.019-7.973 19.073-12.901 31.278-12.901s23.258 4.928 31.28 12.903l468.276 468.276c7.158 7.85 11.542 18.337 11.542 29.848 0 24.502-19.863 44.365-44.365 44.365-11.456 0-21.898-4.342-29.77-11.47l0.038 0.034-437.001-437.001-437.444 437.222c-8.019 7.973-19.073 12.901-31.278 12.901s-23.258-4.928-31.28-12.903l0.002 0.002c-7.973-8.019-12.901-19.073-12.901-31.278s4.928-23.258 12.903-31.28l-0.002 0.002z" />
<glyph unicode="&#xe91b;" glyph-name="intaefont-icon27" d="M75.522 182.301l437.374 437.152 437.818-437.596c7.714-6.636 17.827-10.677 28.883-10.677 24.523 0 44.403 19.88 44.403 44.403 0 11.056-4.041 21.169-10.726 28.941l0.049-0.058-468.9 469.123c-8.037 8.046-19.145 13.023-31.416 13.023s-23.378-4.977-31.415-13.023l-468.679-468.679c-7.98-8.026-12.912-19.089-12.912-31.305s4.933-23.278 12.914-31.307l-0.002 0.002c8.026-7.98 19.089-12.912 31.305-12.912s23.278 4.933 31.307 12.914l-0.002-0.002z" />
<glyph unicode="&#xe91c;" glyph-name="intaefont-icon28" d="M43.574 404.426h424.851v-424.851c0-24.066 19.509-43.574 43.574-43.574s43.574 19.509 43.574 43.574v0 424.851h424.851c24.066 0 43.574 19.509 43.574 43.574s-19.509 43.574-43.574 43.574v0h-424.851v424.851c0 24.066-19.509 43.574-43.574 43.574s-43.574-19.509-43.574-43.574v0-424.851h-424.851c-24.066 0-43.574-19.509-43.574-43.574s19.509-43.574 43.574-43.574v0z" />
<glyph unicode="&#xe91d;" glyph-name="intaefont-icon29" d="M14.736-49.264c9.029-8.977 21.474-14.525 35.216-14.525s26.187 5.549 35.218 14.528l426.831 426.581 426.833-426.583c8.678-7.465 20.054-12.011 32.491-12.011 27.587 0 49.951 22.364 49.951 49.951 0 12.438-4.546 23.813-12.066 32.557l0.055-0.066-426.583 426.833 426.583 426.833c8.977 9.029 14.525 21.474 14.525 35.216s-5.549 26.187-14.528 35.218l0.002-0.002c-9.029 8.977-21.474 14.525-35.216 14.525s-26.187-5.549-35.218-14.528l-426.831-426.581-426.833 426.583c-9.029 8.977-21.474 14.525-35.216 14.525s-26.187-5.549-35.218-14.528l0.002 0.002c-8.977-9.029-14.525-21.474-14.525-35.216s5.549-26.187 14.528-35.218l426.581-426.831-426.583-426.833c-8.977-9.029-14.525-21.474-14.525-35.216s5.549-26.187 14.528-35.218l-0.002 0.002z" />
<glyph unicode="&#xe91e;" glyph-name="intaefont-icon30" d="M372.453 129.938c9.636-9.691 22.977-15.69 37.719-15.69 0.015 0 0.029 0 0.044 0h-0.003c14.661 0.064 27.911 6.049 37.492 15.687l560.829 561.361c9.557 9.613 15.465 22.864 15.465 37.495s-5.908 27.881-15.468 37.498l0.003-0.003c-9.613 9.557-22.864 15.465-37.495 15.465s-27.881-5.908-37.498-15.468l-523.86-523.594-319.105 319.105c-9.602 9.472-22.799 15.321-37.362 15.321-29.39 0-53.215-23.825-53.215-53.215 0-14.827 6.064-28.238 15.847-37.888l0.006-0.006z" />
<glyph unicode="&#xe91f;" glyph-name="intaefont-icon31" horiz-adv-x="1041" d="M480.554-50.934c7.981-8.028 19.016-13.013 31.215-13.066h0.010c0.010 0 0.023 0 0.035 0 24.461 0 44.291 19.83 44.291 44.291 0 12.184-4.92 23.219-12.882 31.227l-389.534 389.534h842.851c24.461 0 44.291 19.83 44.291 44.291s-19.83 44.291-44.291 44.291v0h-847.723l394.63 394.851c7.959 8.006 12.879 19.041 12.879 31.225s-4.92 23.219-12.882 31.227l0.002-0.002c-8.006 7.959-19.041 12.879-31.225 12.879s-23.219-4.92-31.227-12.882l-467.929-467.929c-7.959-8.006-12.879-19.041-12.879-31.225s4.92-23.219 12.882-31.227l-0.002 0.002z" />
<glyph unicode="&#xe920;" glyph-name="intaefont-icon32" horiz-adv-x="1041" d="M44.291 406.367h847.723l-394.63-394.851c-7.959-8.006-12.879-19.041-12.879-31.225s4.92-23.219 12.882-31.227l-0.002 0.002c8.006-7.959 19.041-12.879 31.225-12.879s23.219 4.92 31.227 12.882l467.929 467.707c8.025 8.017 12.99 19.096 12.99 31.336s-4.964 23.319-12.989 31.335v0l-467.488 467.488c-8.138 8.987-19.849 14.609-32.873 14.609-24.461 0-44.291-19.83-44.291-44.291 0-12.969 5.574-24.636 14.458-32.736l0.035-0.031 389.536-389.536h-842.851c-24.461 0-44.291-19.83-44.291-44.291s19.83-44.291 44.291-44.291v0z" />
<glyph unicode="&#xe921;" glyph-name="intaefont-icon33" horiz-adv-x="1218" d="M55.351 849.297h1107.027c30.57 0 55.351 24.782 55.351 55.351s-24.782 55.351-55.351 55.351v0h-1107.027c-30.57 0-55.351-24.782-55.351-55.351s24.782-55.351 55.351-55.351v0zM55.351 392.649h693.276c30.57 0 55.351 24.782 55.351 55.351s-24.782 55.351-55.351 55.351v0h-693.276c-30.57 0-55.351-24.782-55.351-55.351s24.782-55.351 55.351-55.351v0zM55.351-64h1107.027c30.57 0 55.351 24.782 55.351 55.351s-24.782 55.351-55.351 55.351v0h-1107.027c-30.57 0-55.351-24.782-55.351-55.351s24.782-55.351 55.351-55.351v0z" />
<glyph unicode="&#xe922;" glyph-name="intaefont-icon34" horiz-adv-x="1190" d="M55.351 849.297h1079.351c30.57 0 55.351 24.782 55.351 55.351s-24.782 55.351-55.351 55.351v0h-1079.351c-30.57 0-55.351-24.782-55.351-55.351s24.782-55.351 55.351-55.351v0zM55.351 392.649h1076.584c30.57 0 55.351 24.782 55.351 55.351s-24.782 55.351-55.351 55.351v0h-1076.584c-30.57 0-55.351-24.782-55.351-55.351s24.782-55.351 55.351-55.351v0zM55.351-64h1079.351c30.57 0 55.351 24.782 55.351 55.351s-24.782 55.351-55.351 55.351v0h-1079.351c-30.57 0-55.351-24.782-55.351-55.351s24.782-55.351 55.351-55.351v0z" />
<glyph unicode="&#xe923;" glyph-name="intaefont-icon35" horiz-adv-x="1218" d="M55.351-64h1107.027c30.57 0 55.351 24.782 55.351 55.351s-24.782 55.351-55.351 55.351v0h-1107.027c-30.57 0-55.351-24.782-55.351-55.351s24.782-55.351 55.351-55.351v0zM1162.378 503.351h-691.892c-30.57 0-55.351-24.782-55.351-55.351s24.782-55.351 55.351-55.351v0h691.892c30.57 0 55.351 24.782 55.351 55.351s-24.782 55.351-55.351 55.351v0zM55.351 849.297h1107.027c30.57 0 55.351 24.782 55.351 55.351s-24.782 55.351-55.351 55.351v0h-1107.027c-30.57 0-55.351-24.782-55.351-55.351s24.782-55.351 55.351-55.351v0z" />
<glyph unicode="&#xe924;" glyph-name="intaefont-icon36" horiz-adv-x="566" d="M473.416-48.176c9.835-9.783 23.395-15.831 38.367-15.831s28.532 6.048 38.37 15.834l-0.002-0.002c9.732 9.859 15.743 23.411 15.743 38.367s-6.011 28.509-15.749 38.373l0.006-0.006-420.091 419.224 420.525 419.658c9.819 9.819 15.892 23.384 15.892 38.367 0 29.967-24.293 54.26-54.26 54.26-14.983 0-28.548-6.073-38.367-15.892l-458.025-458.025c-9.732-9.859-15.743-23.411-15.743-38.367s6.011-28.509 15.749-38.373l-0.006 0.006z" />
<glyph unicode="&#xe925;" glyph-name="intaefont-icon37" horiz-adv-x="566" d="M15.824-48.176c9.835-9.783 23.395-15.831 38.367-15.831s28.532 6.048 38.37 15.834l458.023 458.023c9.732 9.859 15.743 23.411 15.743 38.367s-6.011 28.509-15.749 38.373l-457.586 457.586c-9.819 9.819-23.384 15.892-38.367 15.892-29.967 0-54.26-24.293-54.26-54.26 0-14.983 6.073-28.548 15.892-38.367l419.224-419.224-419.658-420.308c-9.542-9.824-15.425-23.246-15.425-38.042s5.883-28.219 15.437-38.056l-0.013 0.013z" />
<glyph unicode="&#xe926;" glyph-name="intaefont-icon38" d="M475.11 179.916c9.86-9.808 23.454-15.871 38.464-15.871s28.604 6.063 38.466 15.873l458.741 458.741c8.213 9.465 13.218 21.907 13.218 35.518 0 30.004-24.323 54.328-54.328 54.328-13.448 0-25.755-4.886-35.242-12.98l0.075 0.063-420.931-420.279-420.714 420.714c-9.844 9.844-23.443 15.932-38.464 15.932-30.042 0-54.396-24.354-54.396-54.396 0-15.021 6.089-28.62 15.932-38.464v0z" />
<glyph unicode="&#xe927;" glyph-name="intaefont-icon39" d="M92.57 181.263l418.963 419.83 420.046-420.263c9.829-9.777 23.381-15.821 38.344-15.821s28.514 6.044 38.346 15.824l-0.002-0.002c9.726 9.853 15.733 23.397 15.733 38.344s-6.007 28.491-15.739 38.35l0.006-0.006-458.39 457.74c-9.853 9.726-23.397 15.733-38.344 15.733s-28.491-6.007-38.35-15.739l-457.301-457.301c-9.813-9.813-15.882-23.37-15.882-38.344 0-29.948 24.278-54.226 54.226-54.226 14.974 0 28.531 6.070 38.344 15.882v0z" />
<glyph unicode="&#xe928;" glyph-name="intaefont-icon40" d="M53.333 394.667h405.333v-405.333c0-29.455 23.878-53.333 53.333-53.333s53.333 23.878 53.333 53.333v0 405.333h405.333c29.455 0 53.333 23.878 53.333 53.333s-23.878 53.333-53.333 53.333v0h-405.333v405.333c0 29.455-23.878 53.333-53.333 53.333s-53.333-23.878-53.333-53.333v0-405.333h-405.333c-29.455 0-53.333-23.878-53.333-53.333s23.878-53.333 53.333-53.333v0z" />
<glyph unicode="&#xe929;" glyph-name="intaefont-icon41" d="M17.798-46.202c11.062-11.004 26.314-17.806 43.154-17.806s32.092 6.802 43.157 17.809l407.89 407.89 407.893-407.893c11.062-11.004 26.314-17.806 43.154-17.806s32.092 6.802 43.157 17.809l-0.003-0.003c10.946 11.089 17.707 26.332 17.707 43.154s-6.761 32.066-17.713 43.161l0.006-0.007-407.893 407.893 407.893 407.893c11.044 11.044 17.875 26.301 17.875 43.154 0 33.706-27.324 61.029-61.029 61.029-16.853 0-32.11-6.831-43.154-17.875l-407.893-407.893-407.893 407.893c-11.044 11.044-26.301 17.875-43.154 17.875-33.706 0-61.029-27.324-61.029-61.029 0-16.853 6.831-32.11 17.875-43.154l407.893-407.893-407.893-407.893c-10.946-11.089-17.707-26.332-17.707-43.154s6.761-32.066 17.713-43.161l-0.006 0.007z" />
<glyph unicode="&#xe92a;" glyph-name="intaefont-icon42" d="M366.296 128.61c11.757-11.695 27.965-18.924 45.862-18.924s34.106 7.229 45.865 18.927l546.98 546.98c11.737 11.737 18.997 27.952 18.997 45.862 0 35.821-29.038 64.86-64.86 64.86-17.91 0-34.125-7.26-45.862-18.997l-501.119-501.379-301.345 301.345c-11.748 11.715-27.959 18.959-45.862 18.959-35.872 0-64.951-29.080-64.951-64.951 0-17.968 7.296-34.232 19.087-45.991l0.001-0.001z" />
<glyph unicode="&#xe92b;" glyph-name="intaefont-icon43" horiz-adv-x="1056" d="M473.577-48.029c9.67-9.86 23.131-15.971 38.019-15.971 0.061 0 0.121 0 0.182 0h-0.009c29.909 0.174 54.087 24.46 54.087 54.393 0 14.887-5.98 28.377-15.67 38.199l-362.699 362.699h798.785c29.913 0 54.163 24.249 54.163 54.163s-24.249 54.163-54.163 54.163v0h-803.646l367.797 367.797c9.804 9.804 15.867 23.347 15.867 38.307 0 29.92-24.255 54.175-54.175 54.175-14.96 0-28.504-6.064-38.307-15.867l-457.837-457.837c-9.863-9.776-15.969-23.329-15.969-38.307s6.106-28.531 15.965-38.304l0.004-0.004z" />
<glyph unicode="&#xe92c;" glyph-name="intaefont-icon44" horiz-adv-x="1040" d="M54.163 396.383h803.646l-367.797-367.797c-9.863-9.776-15.969-23.329-15.969-38.307s6.106-28.531 15.965-38.304l0.004-0.004c9.67-9.86 23.131-15.971 38.019-15.971 0.061 0 0.121 0 0.182 0h-0.009c0.005 0 0.011 0 0.017 0 15.010 0 28.594 6.106 38.403 15.969l457.839 457.839c9.863 9.776 15.969 23.329 15.969 38.307s-6.106 28.531-15.965 38.304l-457.61 457.61c-9.804 9.804-23.347 15.867-38.307 15.867-29.92 0-54.175-24.255-54.175-54.175 0-14.96 6.064-28.504 15.867-38.307l362.705-362.705h-798.785c-29.913 0-54.163-24.249-54.163-54.163s24.249-54.163 54.163-54.163v0z" />
<glyph unicode="&#xe92d;" glyph-name="intaefont-icon45" horiz-adv-x="1213" d="M67.368 825.263h1077.895c37.207 0 67.368 30.162 67.368 67.368s-30.162 67.368-67.368 67.368v0h-1077.895c-37.207 0-67.368-30.162-67.368-67.368s30.162-67.368 67.368-67.368v0zM67.368 380.632h675.032c37.207 0 67.368 30.162 67.368 67.368s-30.162 67.368-67.368 67.368v0h-675.032c-37.207 0-67.368-30.162-67.368-67.368s30.162-67.368 67.368-67.368v0zM67.368-64h1077.895c37.207 0 67.368 30.162 67.368 67.368s-30.162 67.368-67.368 67.368v0h-1077.895c-37.207 0-67.368-30.162-67.368-67.368s30.162-67.368 67.368-67.368v0z" />
<glyph unicode="&#xe92e;" glyph-name="intaefont-icon46" horiz-adv-x="1186" d="M67.368 825.263h1050.947c37.207 0 67.368 30.162 67.368 67.368s-30.162 67.368-67.368 67.368v0h-1050.947c-37.207 0-67.368-30.162-67.368-67.368s30.162-67.368 67.368-67.368v0zM67.368 380.632h1048.253c37.207 0 67.368 30.162 67.368 67.368s-30.162 67.368-67.368 67.368v0h-1048.253c-37.207 0-67.368-30.162-67.368-67.368s30.162-67.368 67.368-67.368v0zM67.368-64h1050.947c37.207 0 67.368 30.162 67.368 67.368s-30.162 67.368-67.368 67.368v0h-1050.947c-37.207 0-67.368-30.162-67.368-67.368s30.162-67.368 67.368-67.368v0z" />
<glyph unicode="&#xe92f;" glyph-name="intaefont-icon47" horiz-adv-x="1213" d="M67.368-64h1077.895c37.207 0 67.368 30.162 67.368 67.368s-30.162 67.368-67.368 67.368v0h-1077.895c-37.207 0-67.368-30.162-67.368-67.368s30.162-67.368 67.368-67.368v0zM1145.263 515.368h-673.684c-37.207 0-67.368-30.162-67.368-67.368s30.162-67.368 67.368-67.368v0h673.684c37.207 0 67.368 30.162 67.368 67.368s-30.162 67.368-67.368 67.368v0zM67.368 825.263h1077.895c37.207 0 67.368 30.162 67.368 67.368s-30.162 67.368-67.368 67.368v0h-1077.895c-37.207 0-67.368-30.162-67.368-67.368s30.162-67.368 67.368-67.368v0z" />
<glyph unicode="&#xe930;" glyph-name="intaefont-icon48" horiz-adv-x="576" d="M466.998-45.32c11.341-10.59 26.618-17.091 43.413-17.091 35.17 0 63.682 28.511 63.682 63.682 0 16.795-6.502 32.072-17.126 43.45l0.034-0.037-403.317 403.317 403.317 403.317c12.486 11.658 20.268 28.215 20.268 46.59 0 35.17-28.511 63.682-63.682 63.682-18.375 0-34.933-7.783-46.556-20.231l-0.034-0.037-448.318-448.318c-11.507-11.521-18.624-27.43-18.624-45.002s7.117-33.48 18.625-45.002l-0.001 0.001z" />
<glyph unicode="&#xe931;" glyph-name="intaefont-icon49" horiz-adv-x="576" d="M18.68-45.32c11.521-11.507 27.43-18.624 45.002-18.624s33.48 7.117 45.002 18.625l448.53 448.53c11.507 11.521 18.624 27.43 18.624 45.002s-7.117 33.48-18.625 45.002l-448.105 448.105c-11.341 10.59-26.618 17.091-43.413 17.091-35.17 0-63.682-28.511-63.682-63.682 0-16.795 6.502-32.072 17.126-43.45l-0.034 0.037 403.317-403.317-403.317-403.317c-11.635-11.542-18.837-27.537-18.837-45.214 0-17.466 7.031-33.29 18.418-44.795l-0.005 0.005z" />
<glyph unicode="&#xe932;" glyph-name="intaefont-icon50" d="M465.833 178.381c11.578-11.564 27.566-18.716 45.225-18.716s33.647 7.152 45.225 18.717l450.54 450.327c10.642 11.398 17.176 26.75 17.176 43.628 0 35.345-28.653 63.998-63.998 63.998-16.879 0-32.231-6.534-43.666-17.21l0.037 0.034-405.316-405.316-405.316 405.316c-11.135 9.625-25.755 15.489-41.744 15.489-35.345 0-63.998-28.653-63.998-63.998 0-15.883 5.786-30.414 15.365-41.601l-0.073 0.087z" />
<glyph unicode="&#xe933;" glyph-name="intaefont-icon51" d="M107.544 177.205l405.012 405.012 405.012-405.012c11.24-10.024 26.146-16.15 42.482-16.15 35.318 0 63.95 28.631 63.95 63.95 0 16.283-6.086 31.145-16.107 42.435l0.058-0.066-450.416 450.203c-11.559 11.492-27.492 18.596-45.084 18.596s-33.525-7.104-45.087-18.599l-450.2-450.2c-10.634-11.389-17.163-26.73-17.163-43.596 0-35.318 28.631-63.95 63.95-63.95 16.866 0 32.207 6.529 43.633 17.198l-0.037-0.034z" />
<glyph unicode="&#xe934;" glyph-name="intaefont-icon52" d="M961.306 510.694h-386.612v386.612c0 34.625-28.069 62.694-62.694 62.694s-62.694-28.069-62.694-62.694v0-386.612h-386.612c-34.625 0-62.694-28.069-62.694-62.694s28.069-62.694 62.694-62.694v0h386.612v-386.612c0-34.625 28.069-62.694 62.694-62.694s62.694 28.069 62.694 62.694v0 386.612h386.612c34.625 0 62.694 28.069 62.694 62.694s-28.069 62.694-62.694 62.694v0z" />
<glyph unicode="&#xe935;" glyph-name="intaefont-icon53" d="M51.702 908.298c-12.102-12.116-19.585-28.846-19.585-47.325s7.484-35.208 19.586-47.325l365.649-365.649-365.649-365.649c-12.102-12.116-19.585-28.846-19.585-47.325s7.484-35.208 19.586-47.325l-0.001 0.001c12.116-12.102 28.846-19.585 47.325-19.585s35.208 7.484 47.325 19.586l365.649 365.649 365.649-365.649c11.926-11.136 27.992-17.973 45.655-17.973 36.986 0 66.969 29.983 66.969 66.969 0 17.662-6.837 33.727-18.010 45.693l0.036-0.039-365.649 365.649 365.649 365.649c11.136 11.926 17.973 27.992 17.973 45.655 0 36.986-29.983 66.969-66.969 66.969-17.662 0-33.727-6.837-45.693-18.010l0.039 0.036-365.649-365.649-365.649 365.649c-12.116 12.102-28.846 19.585-47.325 19.585s-35.208-7.484-47.325-19.586l0.001 0.001z" />
<glyph unicode="&#xe936;" glyph-name="intaefont-icon54" d="M359.074 126.626c13.72-13.703 32.665-22.178 53.589-22.178s39.869 8.474 53.59 22.179l533.612 533.612c14.868 13.882 24.136 33.599 24.136 55.48 0 41.882-33.951 75.833-75.833 75.833-21.881 0-41.599-9.268-55.439-24.092l-0.041-0.044-480.277-480.277-284.88 285.385c-13.505 12.61-31.697 20.353-51.697 20.353-41.882 0-75.833-33.951-75.833-75.833 0-20 7.742-38.192 20.394-51.741l-0.041 0.044z" />
<glyph unicode="&#xe937;" glyph-name="intaefont-icon55" horiz-adv-x="1040" d="M976.426 508.983h-761.412l342.344 342.344c11.44 11.555 18.507 27.456 18.507 45.008 0 35.336-28.646 63.982-63.982 63.982-17.784 0-33.874-7.256-45.47-18.968l-447.757-447.757c-11.585-11.532-18.754-27.491-18.754-45.125s7.169-33.593 18.752-45.123l0.002-0.002 447.752-448.685c11.52-11.515 27.433-18.638 45.008-18.638s33.488 7.122 45.009 18.638v0c11.572 11.494 18.735 27.415 18.735 45.008s-7.163 33.514-18.731 45.005l-0.003 0.003-336.514 336.98h756.515c35.161 0 63.665 28.504 63.665 63.665s-28.504 63.665-63.665 63.665v0z" />
<glyph unicode="&#xe938;" glyph-name="intaefont-icon56" horiz-adv-x="1040" d="M573.449 941.344c-11.421 10.978-26.966 17.738-44.090 17.738-35.161 0-63.665-28.504-63.665-63.665 0-17.124 6.761-32.669 17.758-44.111l-0.020 0.021 336.98-337.213h-756.748c-35.161 0-63.665-28.504-63.665-63.665s28.504-63.665 63.665-63.665v0h761.412l-342.111-342.111c-11.572-11.494-18.735-27.415-18.735-45.008s7.163-33.514 18.731-45.005l0.003-0.003c11.52-11.515 27.433-18.638 45.008-18.638s33.488 7.122 45.009 18.638l448.452 448.452c11.572 11.494 18.735 27.415 18.735 45.008s-7.163 33.514-18.731 45.005l-0.003 0.003z" />
<glyph unicode="&#xe939;" glyph-name="intaefont-icon57" horiz-adv-x="1208" d="M1129.026 960h-1050.256c-43.503 0-78.769-35.266-78.769-78.769s35.266-78.769 78.769-78.769v0h1050.256c43.503 0 78.769 35.266 78.769 78.769s-35.266 78.769-78.769 78.769v0zM78.769 369.231h657.723c43.503 0 78.769 35.266 78.769 78.769s-35.266 78.769-78.769 78.769v0h-657.723c-43.503 0-78.769-35.266-78.769-78.769s35.266-78.769 78.769-78.769v0zM1129.026 93.538h-1050.256c-43.503 0-78.769-35.266-78.769-78.769s35.266-78.769 78.769-78.769v0h1050.256c43.503 0 78.769 35.266 78.769 78.769s-35.266 78.769-78.769 78.769v0z" />
<glyph unicode="&#xe93a;" glyph-name="intaefont-icon58" horiz-adv-x="1182" d="M1102.769 960h-1024c-43.503 0-78.769-35.266-78.769-78.769s35.266-78.769 78.769-78.769v0h1024c43.503 0 78.769 35.266 78.769 78.769s-35.266 78.769-78.769 78.769v0zM78.769 369.231h1021.374c43.503 0 78.769 35.266 78.769 78.769s-35.266 78.769-78.769 78.769v0h-1021.374c-43.503 0-78.769-35.266-78.769-78.769s35.266-78.769 78.769-78.769v0zM1102.769 93.538h-1024c-43.503 0-78.769-35.266-78.769-78.769s35.266-78.769 78.769-78.769v0h1024c43.503 0 78.769 35.266 78.769 78.769s-35.266 78.769-78.769 78.769v0z" />
<glyph unicode="&#xe93b;" glyph-name="intaefont-icon59" horiz-adv-x="1208" d="M1129.026 93.538h-1050.256c-43.503 0-78.769-35.266-78.769-78.769s35.266-78.769 78.769-78.769v0h1050.256c43.503 0 78.769 35.266 78.769 78.769s-35.266 78.769-78.769 78.769v0zM1129.026 526.769h-656.41c-43.503 0-78.769-35.266-78.769-78.769s35.266-78.769 78.769-78.769v0h656.41c43.503 0 78.769 35.266 78.769 78.769s-35.266 78.769-78.769 78.769v0zM1129.026 960h-1050.256c-43.503 0-78.769-35.266-78.769-78.769s35.266-78.769 78.769-78.769v0h1050.256c43.503 0 78.769 35.266 78.769 78.769s-35.266 78.769-78.769 78.769v0z" />
<glyph unicode="&#xe93c;" glyph-name="intaefont-icon60" horiz-adv-x="864" d="M378.907 158.797c12.019-16.56 31.311-27.206 53.092-27.206s41.074 10.645 52.961 27.018l0.131 0.189 360.54 502.655c7.645 10.525 12.229 23.703 12.229 37.952 0 35.899-29.103 65.002-65.002 65.002-0.042 0-0.083 0-0.124 0h-721.071c-0.154 0.001-0.34 0.002-0.522 0.002-35.899 0-65.002-29.103-65.002-65.002 0-14.25 4.585-27.429 12.361-38.142l-0.13 0.188z" />
<glyph unicode="&#xe93d;" glyph-name="intaefont-icon61" horiz-adv-x="864" d="M378.876 738.042l-360.758-504.578c-7.65-10.532-12.239-23.718-12.239-37.977 0-35.921 29.121-65.042 65.042-65.042 0.184 0 0.368 0.001 0.551 0.003h721.49c0.035 0 0.076 0 0.117 0 35.921 0 65.042 29.121 65.042 65.042 0 14.257-4.588 27.444-12.367 38.162l0.13-0.188-360.758 504.578c-11.927 16.734-31.266 27.514-53.125 27.514s-41.197-10.782-52.989-27.316l-0.134-0.198z" />
<glyph unicode="&#xe93e;" glyph-name="intaefont-icon62" horiz-adv-x="635" d="M519.631 852.191l-492.761-352.311c-16.341-11.647-26.871-30.535-26.871-51.881s10.528-40.231 26.678-51.75l0.194-0.132 492.761-352.311c10.284-7.471 23.162-11.95 37.085-11.95 35.080 0 63.52 28.438 63.52 63.52 0 0.041 0 0.081 0 0.122v-0.007 704.622c0.002 0.151 0.003 0.332 0.003 0.511 0 35.080-28.438 63.52-63.52 63.52-13.924 0-26.803-4.48-37.271-12.078l0.184 0.126z" />
<glyph unicode="&#xe93f;" glyph-name="intaefont-icon63" horiz-adv-x="635" d="M100.605 43.809l491.185 352.311c16.184 11.744 26.587 30.597 26.587 51.881s-10.403 40.137-26.401 51.751l-0.185 0.127-491.185 352.311c-10.284 7.471-23.163 11.952-37.087 11.952-35.080 0-63.52-28.438-63.52-63.52 0-0.179 0.001-0.358 0.003-0.539v0.028-704.622c0-0.033 0-0.073 0-0.114 0-35.080 28.438-63.52 63.52-63.52 13.923 0 26.801 4.48 37.269 12.077l-0.184-0.126z" />
<glyph unicode="&#xe940;" glyph-name="intaefont-icon64" horiz-adv-x="768" d="M718.884 633.99h-675.923c-23.741-0.066-42.961-19.327-42.961-43.077 0-13.173 5.913-24.966 15.232-32.87l0.062-0.051 337.963-285.78c7.456-6.346 17.198-10.207 27.843-10.207s20.386 3.861 27.903 10.258l-0.062-0.050 337.612 285.78c9.381 7.955 15.296 19.748 15.296 32.921 0 23.751-19.22 43.012-42.955 43.077h-0.006z" />
<glyph unicode="&#xe941;" glyph-name="intaefont-icon65" horiz-adv-x="768" d="M42.963 262.009h675.923c23.741 0.066 42.962 19.327 42.962 43.077 0 13.174-5.914 24.967-15.232 32.87l-0.062 0.051-337.612 285.78c-7.456 6.346-17.198 10.207-27.843 10.207s-20.387-3.861-27.903-10.258l0.061 0.050-337.962-285.78c-9.381-7.954-15.295-19.747-15.295-32.921 0-23.751 19.22-43.012 42.956-43.077h0.006z" />
<glyph unicode="&#xe942;" glyph-name="intaefont-icon66" horiz-adv-x="436" d="M406.088 79.055v737.889c-0.072 25.918-21.097 46.901-47.025 46.901-14.381 0-27.258-6.456-35.883-16.628l-0.057-0.069-311.979-368.945c-6.929-8.142-11.144-18.774-11.144-30.395s4.215-22.255 11.197-30.462l-0.056 0.067 311.979-368.563c8.683-10.241 21.556-16.697 35.939-16.697 25.928 0 46.955 20.982 47.025 46.894v0.007z" />
<glyph unicode="&#xe943;" glyph-name="intaefont-icon67" horiz-adv-x="436" d="M0 816.945v-737.889c0.071-25.919 21.098-46.901 47.025-46.901 14.381 0 27.257 6.456 35.883 16.628l0.057 0.069 311.979 368.562c6.929 8.141 11.143 18.774 11.143 30.395s-4.215 22.254-11.197 30.462l0.056-0.067-311.979 368.945c-8.683 10.241-21.556 16.697-35.938 16.697-25.928 0-46.955-20.982-47.025-46.893v-0.006z" />
<glyph unicode="&#xe944;" glyph-name="intaefont-icon68" horiz-adv-x="736" d="M645.041 847.149l-238.954-282.539v252.334c-0.071 25.919-21.098 46.901-47.025 46.901-14.381 0-27.257-6.456-35.883-16.628l-0.057-0.069-311.979-368.945c-6.929-8.141-11.143-18.774-11.143-30.395s4.215-22.254 11.197-30.462l-0.056 0.067 311.979-368.562c8.683-10.241 21.556-16.697 35.938-16.697 25.928 0 46.955 20.982 47.025 46.893v252.342l238.954-282.539c8.61-9.246 20.854-15.010 34.444-15.010 25.334 0 45.99 20.032 46.988 45.124l0.004 0.091v737.889c-1.002 25.179-21.656 45.214-46.991 45.214-13.589 0-25.833-5.763-34.418-14.981l-0.026-0.029z" />
<glyph unicode="&#xe945;" glyph-name="intaefont-icon69" horiz-adv-x="736" d="M82.959 48.851l238.954 282.539v-252.334c0.071-25.919 21.098-46.901 47.025-46.901 14.381 0 27.257 6.456 35.883 16.628l0.057 0.069 311.979 368.563c6.929 8.141 11.143 18.774 11.143 30.395s-4.215 22.254-11.197 30.462l0.056-0.067-311.979 368.945c-8.683 10.241-21.556 16.697-35.938 16.697-25.928 0-46.955-20.982-47.025-46.893v-252.342l-238.954 282.539c-8.683 10.241-21.556 16.697-35.938 16.697-25.928 0-46.955-20.982-47.025-46.893v-737.897c0.071-25.919 21.098-46.901 47.025-46.901 14.381 0 27.257 6.456 35.883 16.628l0.057 0.069z" />
<glyph unicode="&#xe946;" glyph-name="chevron-left" d="M670.165 222.165l-225.835 225.835 225.835 225.835c16.683 16.683 16.683 43.691 0 60.331s-43.691 16.683-60.331 0l-256-256c-16.683-16.683-16.683-43.691 0-60.331l256-256c16.683-16.683 43.691-16.683 60.331 0s16.683 43.691 0 60.331z" />
<glyph unicode="&#xe947;" glyph-name="chevron-right" d="M414.165 161.835l256 256c16.683 16.683 16.683 43.691 0 60.331l-256 256c-16.683 16.683-43.691 16.683-60.331 0s-16.683-43.691 0-60.331l225.835-225.835-225.835-225.835c-16.683-16.683-16.683-43.691 0-60.331s43.691-16.683 60.331 0z" />
<glyph unicode="&#xe948;" glyph-name="chevrons-left" d="M499.499 264.832l-183.168 183.168 183.168 183.168c16.683 16.683 16.683 43.691 0 60.331s-43.691 16.683-60.331 0l-213.333-213.333c-16.683-16.683-16.683-43.691 0-60.331l213.333-213.333c16.683-16.683 43.691-16.683 60.331 0s16.683 43.691 0 60.331zM798.165 264.832l-183.168 183.168 183.168 183.168c16.683 16.683 16.683 43.691 0 60.331s-43.691 16.683-60.331 0l-213.333-213.333c-16.683-16.683-16.683-43.691 0-60.331l213.333-213.333c16.683-16.683 43.691-16.683 60.331 0s16.683 43.691 0 60.331z" />
<glyph unicode="&#xe949;" glyph-name="chevrons-right" d="M584.832 204.501l213.333 213.333c16.683 16.683 16.683 43.691 0 60.331l-213.333 213.333c-16.683 16.683-43.691 16.683-60.331 0s-16.683-43.691 0-60.331l183.168-183.168-183.168-183.168c-16.683-16.683-16.683-43.691 0-60.331s43.691-16.683 60.331 0zM286.165 204.501l213.333 213.333c16.683 16.683 16.683 43.691 0 60.331l-213.333 213.333c-16.683 16.683-43.691 16.683-60.331 0s-16.683-43.691 0-60.331l183.168-183.168-183.168-183.168c-16.683-16.683-16.683-43.691 0-60.331s43.691-16.683 60.331 0z" />
<glyph unicode="&#xe94a;" glyph-name="intaefont-icon70" d="M391.043 177.984c98.48 0.442 188.235 37.43 256.483 98.089l-0.396-0.346c-0.016-0.327-0.025-0.71-0.025-1.095 0-6.725 2.717-12.815 7.112-17.234l-0.001 0.001 313.267-314.244c4.429-4.464 10.567-7.228 17.35-7.228s12.92 2.764 17.348 7.226l0.002 0.002c4.464 4.429 7.228 10.567 7.228 17.35s-2.764 12.92-7.226 17.348l-313.513 313.269c-4.188 4.371-10.075 7.088-16.595 7.088-0.094 0-0.187-0.001-0.281-0.002h0.014c67.405 70.137 108.916 165.594 108.916 270.747 0 215.929-175.044 390.973-390.973 390.973s-390.973-175.044-390.973-390.973c0-215.929 175.044-390.973 390.973-390.973 0.454 0 0.907 0.001 1.36 0.002h-0.070zM391.043 911.059c188.937 0 342.101-153.164 342.101-342.101s-153.164-342.101-342.101-342.101c-188.937 0-342.101 153.164-342.101 342.101v0c0 188.937 153.164 342.101 342.101 342.101v0z" />
<glyph unicode="&#xe94b;" glyph-name="intaefont-icon71" horiz-adv-x="1010" d="M401.106 157.788c0.047 0 0.104 0 0.16 0 94.553 0 181.419 32.91 249.769 87.9l-0.772-0.601 299.178-299.65c6.403-6.395 15.245-10.35 25.010-10.35s18.607 3.955 25.011 10.351v0c6.453 6.377 10.449 15.227 10.449 25.010s-3.996 18.633-10.446 25.007l-0.003 0.003-298.234 299.178c61.701 70.183 99.352 162.822 99.352 264.255 0 221.525-179.581 401.106-401.106 401.106s-401.106-179.581-401.106-401.106c0-221.525 179.581-401.106 401.106-401.106 0.574 0 1.147 0.001 1.72 0.004h-0.088zM401.106 889.217c182.432 0 330.323-147.89 330.323-330.323s-147.89-330.323-330.323-330.323c-182.432 0-330.323 147.89-330.323 330.323v0c0 182.432 147.89 330.323 330.323 330.323v0z" />
<glyph unicode="&#xe94c;" glyph-name="intaefont-icon72" horiz-adv-x="1010" d="M410.512 138.976c0.081 0 0.178 0 0.274 0 93.621 0 179.849 31.657 248.562 84.85l-0.933-0.694 273.675-273.675c7.924-6.817 18.312-10.968 29.669-10.968 25.191 0 45.612 20.421 45.612 45.612 0 11.357-4.151 21.745-11.018 29.729l0.050-0.060-272.306 273.675c58.809 70.527 94.51 162.113 94.51 262.037 0 226.72-183.793 410.512-410.512 410.512s-410.512-183.793-410.512-410.512c0-226.72 183.793-410.512 410.512-410.512 0.849 0 1.698 0.003 2.547 0.008l-0.13-0.001zM410.512 868.775c176.338 0 319.287-142.95 319.287-319.287s-142.95-319.287-319.287-319.287c-176.338 0-319.287 142.95-319.287 319.287v0c0 176.338 142.95 319.287 319.287 319.287v0z" />
<glyph unicode="&#xe94d;" glyph-name="intaefont-icon73" horiz-adv-x="1011" d="M744.897 278.885c58.085 71.65 93.254 163.938 93.254 264.441 0 232.824-188.741 421.565-421.565 421.565s-421.565-188.741-421.565-421.565c0-232.824 188.741-421.565 421.565-421.565 93.424 0 179.75 30.39 249.632 81.824l-1.165-0.818 251.635-250.704c10.007-9.916 23.783-16.043 38.991-16.043s28.984 6.127 38.995 16.048l-0.004-0.004c9.93 10.044 16.064 23.859 16.064 39.107s-6.134 29.063-16.069 39.112l0.005-0.005zM419.004 232.329c-170.6 0-308.899 138.299-308.899 308.899s138.299 308.899 308.899 308.899c170.6 0 308.899-138.299 308.899-308.899 0-0.082 0-0.164 0-0.246v0.013c0-170.6-138.299-308.899-308.899-308.899v0z" />
<glyph unicode="&#xe94e;" glyph-name="intaefont-icon74" horiz-adv-x="1011" d="M766.999 256.368c62.111 74.679 99.808 171.582 99.808 277.289 0 240.293-194.796 435.088-435.088 435.088s-435.088-194.796-435.088-435.088c0-240.293 194.796-435.088 435.088-435.088 96.697 0 186.027 31.545 258.26 84.905l-1.188-0.838 229.911-230.853c9.766-9.766 23.259-15.807 38.161-15.807 29.806 0 53.968 24.163 53.968 53.968 0 14.903-6.041 28.395-15.807 38.161v0zM431.79 225.745c-167.047 0-302.465 135.418-302.465 302.465s135.418 302.465 302.465 302.465c167.047 0 302.465-135.418 302.465-302.465v0c0-167.047-135.418-302.465-302.465-302.465v0z" />
<glyph unicode="&#xe94f;" glyph-name="intaefont-icon75" horiz-adv-x="971" d="M949.281 61.61l-285.049 314.172c44.466 59.717 71.189 134.933 71.189 216.391 0 0.041 0 0.082 0 0.123v-0.007c0 203.081-164.63 367.71-367.71 367.71s-367.71-164.63-367.71-367.71c0-203.081 164.63-367.71 367.71-367.71v0c0.008 0 0.018 0 0.028 0 69.313 0 134.104 19.364 189.257 52.977l-1.606-0.909 289.756-319.173c13.347-13.277 31.749-21.484 52.068-21.484s38.72 8.207 52.071 21.487l-0.003-0.003c13.207 13.379 21.364 31.771 21.364 52.068s-8.157 38.689-21.372 52.076l0.008-0.008zM147.084 592.29c0 121.849 98.778 220.626 220.626 220.626s220.626-98.778 220.626-220.626c0-121.849-98.778-220.626-220.626-220.626v0c-121.849 0-220.626 98.778-220.626 220.626v0z" />
<glyph unicode="&#xe950;" glyph-name="search" d="M684.416 283.477c-1.451-1.109-2.859-2.347-4.224-3.712s-2.56-2.731-3.712-4.224c-53.675-51.755-126.677-83.541-207.147-83.541-82.475 0-157.099 33.365-211.2 87.467s-87.467 128.725-87.467 211.2 33.365 157.099 87.467 211.2 128.725 87.467 211.2 87.467 157.099-33.365 211.2-87.467 87.467-128.725 87.467-211.2c0-80.469-31.787-153.472-83.584-207.189zM926.165 94.165l-156.8 156.8c52.523 65.707 83.968 149.035 83.968 239.701 0 106.027-43.008 202.069-112.469 271.531s-165.504 112.469-271.531 112.469-202.069-43.008-271.531-112.469-112.469-165.504-112.469-271.531 43.008-202.069 112.469-271.531 165.504-112.469 271.531-112.469c90.667 0 173.995 31.445 239.701 83.968l156.8-156.8c16.683-16.683 43.691-16.683 60.331 0s16.683 43.691 0 60.331z" />
<glyph unicode="&#xe951;" glyph-name="corner-down-right" d="M128 789.333v-298.667c0-58.88 23.936-112.299 62.464-150.869s91.989-62.464 150.869-62.464h409.003l-140.501-140.501c-16.683-16.683-16.683-43.691 0-60.331s43.691-16.683 60.331 0l213.333 213.333c3.925 3.925 7.083 8.619 9.259 13.824 6.4 15.445 3.328 33.92-9.259 46.507l-213.333 213.333c-16.683 16.683-43.691 16.683-60.331 0s-16.683-43.691 0-60.331l140.501-140.501h-409.003c-35.371 0-67.285 14.293-90.496 37.504s-37.504 55.125-37.504 90.496v298.667c0 23.552-19.115 42.667-42.667 42.667s-42.667-19.115-42.667-42.667z" />
<glyph unicode="&#xe952;" glyph-name="intaefont-icon76" d="M0.236 596.328c-0.15-4.68-0.236-10.184-0.236-15.708 0-62.885 11.092-123.18 31.424-179.035l-1.158 3.64q91.729-229.869 499.869-229.869h127.766v-146.057c-0.137-1.061-0.214-2.289-0.214-3.535 0-9.76 4.786-18.402 12.141-23.707l0.087-0.059c5.615-7.232 14.263-11.879 24.003-12.012h0.021c0.984-0.115 2.124-0.181 3.279-0.181 9.829 0 18.545 4.765 23.963 12.112l0.057 0.082 292.66 294.298c5.816 7.041 9.535 16.006 10.096 25.817l0.005 0.119c-0.294 10.413-4.057 19.893-10.166 27.382l0.065-0.082-293.752 290.749c-5.945 6.344-14.375 10.298-23.729 10.298-1.258 0-2.499-0.071-3.721-0.211l0.149 0.014c-0.526 0.034-1.141 0.053-1.761 0.053-8.872 0-16.828-3.918-22.233-10.118l-0.030-0.035c-7.116-6.46-11.668-15.634-12.011-25.875l-0.002-0.060v-144.965h-126.674q-40.132 0-99.919 4.095c-32.21 1.662-62.428 5.953-91.709 12.696l3.528-0.684c-28.562 5.258-54.004 13.589-77.799 24.833l1.904-0.809c-22.923 11.247-42.671 24.538-60.358 40.115l0.297-0.256c-18.406 15.74-33.721 34.451-45.345 55.486l-0.519 1.025c-12.394 22.557-21.882 48.741-27.047 76.446l-0.253 1.634c-6.096 31.193-9.667 67.134-9.828 103.879l-0.001 0.135c0 12.013 0 35.217 3.822 69.889v14.196c0.928 3.383 1.462 7.267 1.462 11.275 0 1.028-0.035 2.047-0.104 3.057l0.007-0.137c-0.066 5.812-1.575 11.256-4.184 16.012l0.089-0.178c-4.239 2.454-9.301 3.956-14.702 4.094l-0.040 0.001c-0.141 0.004-0.308 0.006-0.475 0.006-6.394 0-12.064-3.095-15.595-7.87l-0.037-0.053c-0.053-1.629-0.778-3.080-1.906-4.090l-0.005-0.004c-1.458-1.482-2.803-3.087-4.014-4.794l-0.081-0.12c-1.064-1.445-1.758-3.222-1.909-5.152l-0.002-0.035-7.917-15.834c-0.695-5.355-2.847-10.108-6.043-13.968l0.037 0.046q-71.254-162.164-71.254-257.989z" />
<glyph unicode="&#xe953;" glyph-name="intaefont-icon77" d="M1008.008 316.198c9.836 8.866 15.992 21.652 15.992 35.875s-6.156 27.009-15.949 35.836l-0.043 0.039-351.813 304.181c-8.39 7.884-19.717 12.729-32.175 12.729-7.608 0-14.794-1.807-21.153-5.014l0.27 0.123c-16.159-6.662-27.324-22.289-27.324-40.525 0-1.441 0.070-2.866 0.206-4.272l-0.014 0.179v-175.757q-245.999 3.617-331.616 83.808t-22.309 288.505c1.501 3.461 2.374 7.492 2.374 11.727 0 11.206-6.115 20.985-15.19 26.181l-0.147 0.078c-5.616 4.082-12.649 6.531-20.254 6.531-8.634 0-16.532-3.157-22.6-8.378l0.046 0.039c-47.762-36.387-86.961-81.359-115.853-132.89l-1.117-2.168c-30.303-49.363-48.496-109.012-49.138-172.864l-0.002-0.178c-0.128-3.607-0.2-7.844-0.2-12.099 0-63.235 16.038-122.726 44.267-174.624l-0.957 1.922c29.192-50.177 72.284-89.485 123.998-113.249l1.714-0.706c51.826-24.815 111.98-44.029 175.061-54.613l4.011-0.556c68.088-10.938 146.984-17.492 227.298-18.085l0.611-0.004v-159.778c-0.090-1.051-0.141-2.275-0.141-3.51 0-18.216 11.143-33.83 26.983-40.398l0.29-0.107c5.935-2.904 12.914-4.602 20.29-4.602 12.309 0 23.514 4.729 31.897 12.469l-0.032-0.029z" />
<glyph unicode="&#xe954;" glyph-name="intaefont-icon78" d="M505.525 239.16c-146.865 11.898-275.020 83.321-361.744 189.824l-0.747 0.947c-88.861 102.008-143.035 236.26-143.035 383.166 0 6.613 0.109 13.2 0.328 19.759l-0.025-0.955c46.211-78.603 106.852-143.826 178.836-193.874l1.995-1.313c69.025-48.45 153.028-80.195 243.908-87.674l1.801-0.119c12.695-1.131 27.463-1.776 42.382-1.776 23.117 0 45.873 1.548 68.169 4.547l-2.604-0.286v152.671c-0.327 2.188-0.513 4.713-0.513 7.281 0 14.846 6.234 28.237 16.226 37.697l0.024 0.022c10.491 7.454 23.743 5.246 40.307-6.626l417.43-303.686 15.737-31.473c-0.649-12.008-6.647-22.493-15.633-29.191l-0.103-0.073-417.43-303.686c-16.565-12.147-29.816-14.356-40.307-6.902-10.12 9.627-16.414 23.194-16.414 38.231 0 2.976 0.247 5.893 0.72 8.734l-0.043-0.308v122.855c-7.222 1.474-15.523 2.318-24.021 2.318-1.844 0-3.679-0.040-5.504-0.118l0.26 0.009z" />
<glyph unicode="&#xe955;" glyph-name="intaefont-icon79" d="M766.149 331.992c8.407 8.095 13.628 19.447 13.628 32.018 0 0.050 0 0.101 0 0.151v-0.008c0.009 0.308 0.014 0.67 0.014 1.033 0 11.791-5.272 22.349-13.588 29.448l-0.053 0.045-307.714 266.285c-6.624 6.697-15.813 10.844-25.971 10.844-6.692 0-12.963-1.8-18.356-4.942l0.174 0.093c-14.432-6.44-24.309-20.664-24.309-37.195 0-0.722 0.019-1.439 0.056-2.152l-0.004 0.099v-144.999c-98.12 11.72-163.533 41.701-195.966 89.125s-32.706 123.194 0 226.492c1.357 3.129 2.147 6.773 2.147 10.602 0 10.132-5.528 18.972-13.733 23.669l-0.133 0.070c-5.072 4.065-11.584 6.523-18.67 6.523s-13.598-2.458-18.729-6.569l0.060 0.046c-42.434-31.458-76.98-71.054-101.823-116.694l-0.93-1.867c-25.95-43.204-41.562-95.206-42.244-150.803l-0.002-0.193q0-160.534 101.935-233.034t288.090-86.4v-144.999c-0.008-0.29-0.012-0.631-0.012-0.973 0-16.224 9.912-30.132 24.012-35.999l0.258-0.095c5.253-3.027 11.551-4.813 18.267-4.813 10.076 0 19.213 4.020 25.895 10.544l-0.008-0.007zM1010.085 394.68c8.524-7.050 13.915-17.629 13.915-29.467 0-0.373-0.005-0.744-0.016-1.114l0.002 0.054c0.001-0.070 0.001-0.154 0.001-0.237 0-12.594-5.338-23.94-13.875-31.9l-0.026-0.024-307.441-264.65c-7.243-6.353-16.797-10.229-27.256-10.229-22.88 0-41.428 18.548-41.428 41.428 0 0.050 0 0.101 0 0.152v-0.008 27.255l188.062 163.533c21.481 16.761 35.163 42.652 35.163 71.738 0 0.267-0.002 0.535-0.004 0.802v-0.041c0.008 0.476 0.014 1.037 0.014 1.6 0 29.412-13.662 55.634-34.987 72.663l-0.186 0.144-188.062 163.533v27.255c-0.044 0.688-0.069 1.493-0.069 2.302 0 16.25 10.086 30.144 24.339 35.764l0.26 0.091c5.351 2.884 11.711 4.58 18.467 4.58 9.831 0 18.824-3.59 25.739-9.53l-0.053 0.044z" />
<glyph unicode="&#xe956;" glyph-name="intaefont-icon80" horiz-adv-x="886" d="M262.813-24.033l476.272 593.145-251.61 201.954-476.272-593.145c-7.15-8.694-11.485-19.938-11.485-32.195 0-1.884 0.102-3.745 0.302-5.576l-0.020 0.227 21.195-194.082c0.582-5.861 5.487-10.402 11.453-10.402 0.553 0 1.096 0.039 1.628 0.114l-0.061-0.007 194.082 21.195c14.010 1.504 26.155 8.462 34.442 18.677l0.075 0.095zM704.409 947.333l159.84-128.331c25.297-20.31 29.339-57.281 9.029-82.578v0l-87.576-109.078-251.446 201.879 87.386 108.842c20.31 25.297 57.281 29.339 82.578 9.029v0z" />
<glyph unicode="&#xe957;" glyph-name="intaefont-icon81" d="M1012.2 714.505l-235.134 234.271c-6.238 6.876-15.208 11.176-25.183 11.176s-18.944-4.3-25.157-11.147l-0.025-0.028-636.043-639.784-88.067-327.519c-1.448-3.567-2.289-7.705-2.289-12.039 0-9.14 3.738-17.408 9.768-23.357l0.004-0.004c5.706-6.251 13.889-10.158 22.984-10.158 6.454 0 12.449 1.967 17.417 5.335l-0.109-0.070 322.338 86.341 639.496 639.209c7.053 5.637 11.532 14.239 11.532 23.888s-4.479 18.25-11.471 23.841l-0.061 0.047zM108.214 47.092l52.956 191.388 141.023-141.886z" />
<glyph unicode="&#xe958;" glyph-name="intaefont-icon82" horiz-adv-x="820" d="M305.368 51.022c49.005 24.223 90.048 57.615 122.353 98.263l0.558 0.727 193.4 268.978 180.167 261.089c11.467 16.246 18.328 36.457 18.328 58.27 0 33.189-15.884 62.669-40.466 81.251l-0.256 0.186-157.264 119.348c-16.987 13.177-38.606 21.123-62.081 21.123-34.729 0-65.395-17.392-83.765-43.942l-0.222-0.339-178.131-256.509-191.873-268.215c-28.095-42.424-47.661-92.911-55.016-147.275l-0.204-1.846c0.057-0.572 0.090-1.237 0.090-1.909s-0.033-1.336-0.096-1.992l0.007 0.083-47.586-180.167c-2.027-7.421-3.191-15.943-3.191-24.736 0-5.282 0.42-10.465 1.229-15.519l-0.073 0.556c4.68-25.388 18.421-46.95 37.675-61.66l0.241-0.177c12.469-9.623 27.676-16.312 44.262-18.767l0.525-0.064h12.215c13.269 0.194 25.836 2.983 37.287 7.878l-0.642-0.244h618.37c21.081 0 38.171 17.090 38.171 38.171s-17.090 38.171-38.171 38.171v0h-495.459l45.805 29.264zM539.483 872.461c4.62 6.933 12.406 11.439 21.244 11.439 6.042 0 11.593-2.106 15.958-5.624l-0.049 0.038 157.264-119.093c5.766-4.703 9.419-11.807 9.419-19.765 0-5.907-2.013-11.344-5.39-15.663l0.042 0.056-76.342-113.75-198.489 151.157zM260.326 113.622l-147.34-95.173c-6.384-1.019-12.064-3.443-16.91-6.95l0.114 0.079c-3.706 0.473-7.005 1.931-9.708 4.101l0.038-0.029c-5.123 3.667-8.793 9.080-10.149 15.355l-0.030 0.168c-0.196 1.186-0.308 2.552-0.308 3.944s0.112 2.759 0.327 4.090l-0.019-0.146 46.314 180.167c1.133 4.214 2.031 9.239 2.516 14.383l0.029 0.376c6.858 42.515 21.875 80.52 43.451 113.886l-0.7-1.155 193.4 268.978 57.256 82.704 198.489-151.157-57.256-84.231-194.163-268.469c-24.858-30.693-55.454-55.678-90.291-73.572l-1.574-0.734c-5.26-2.103-9.697-4.323-13.923-6.859l0.436 0.243z" />
<glyph unicode="&#xe959;" glyph-name="intaefont-icon83" horiz-adv-x="820" d="M305.368 51.022c49.005 24.223 90.048 57.615 122.353 98.263l0.558 0.727 193.4 268.978 180.167 261.089c11.467 16.246 18.328 36.457 18.328 58.27 0 33.189-15.884 62.669-40.466 81.251l-0.256 0.186-157.264 119.348c-16.987 13.177-38.606 21.123-62.081 21.123-34.729 0-65.395-17.392-83.765-43.942l-0.222-0.339-178.131-256.509-191.873-268.215c-28.095-42.424-47.661-92.911-55.016-147.275l-0.204-1.846c0.057-0.572 0.090-1.237 0.090-1.909s-0.033-1.336-0.096-1.992l0.007 0.083-47.586-180.167c-2.027-7.421-3.191-15.943-3.191-24.736 0-5.282 0.42-10.465 1.229-15.519l-0.073 0.556c4.68-25.388 18.421-46.95 37.675-61.66l0.241-0.177c12.469-9.623 27.676-16.312 44.262-18.767l0.525-0.064h12.215c13.269 0.194 25.836 2.983 37.287 7.878l-0.642-0.244h618.37c21.081 0 38.171 17.090 38.171 38.171s-17.090 38.171-38.171 38.171v0h-495.459l45.805 29.264zM539.483 872.461c4.62 6.933 12.406 11.439 21.244 11.439 6.042 0 11.593-2.106 15.958-5.624l-0.049 0.038 157.264-119.093c5.766-4.703 9.419-11.807 9.419-19.765 0-5.907-2.013-11.344-5.39-15.663l0.042 0.056-76.342-113.75-198.489 151.157zM161.59 50.513c-0.841 0.126-1.812 0.198-2.799 0.198s-1.958-0.072-2.907-0.211l0.108 0.013c-7.932-0.241-14.352-6.397-15.010-14.194l-0.004-0.057-27.992-17.813c-6.384-1.019-12.064-3.443-16.91-6.95l0.114 0.079c-3.706 0.473-7.005 1.931-9.708 4.101l0.038-0.029c-1.774 1.53-3.292 3.29-4.524 5.248l-0.056 0.096c6.597 1.651 11.413 7.511 11.451 14.501v0.004c-0.163 7.028-5.050 12.87-11.601 14.483l-0.105 0.022 38.171 149.121c7.387 1.020 13.042 7.201 13.232 14.74v0.019c-0.052 5.211-2.75 9.78-6.813 12.434l-0.058 0.035c0.058 1.026 0.091 2.227 0.091 3.435s-0.033 2.409-0.098 3.601l0.007-0.166c6.414 42.716 21.11 81.021 42.447 114.701l-0.714-1.206 193.4 268.978 57.256 82.704h1.527c-0.962-1.829-1.527-3.996-1.527-6.296 0-0.023 0-0.047 0-0.070v0.004c0-8.432 6.836-15.268 15.268-15.268v0c3.692 0.056 7.062 1.392 9.695 3.583l-0.025-0.020 134.871-101.789c-0.127-0.727-0.199-1.564-0.199-2.417s0.073-1.691 0.212-2.505l-0.012 0.087c0-8.432 6.836-15.268 15.268-15.268v0c3.151 0.165 6.033 1.188 8.455 2.836l-0.057-0.037 16.032-12.215-58.274-86.012-194.163-268.469c-10.283-13.912-21.752-26.027-34.524-36.625l-0.339-0.273c-1.031 7.331-7.234 12.918-14.753 12.978h-0.006c-8.432 0-15.268-6.836-15.268-15.268v0c0.019-6.152 3.613-11.459 8.813-13.956l0.093-0.040c-9.958-7.224-21.289-14.158-33.153-20.195l-1.455-0.672c-5.248-2.188-9.681-4.489-13.896-7.108l0.409 0.237zM473.575 616.207c8.432 0 15.268 6.836 15.268 15.268s-6.836 15.268-15.268 15.268c-8.432 0-15.268-6.836-15.268-15.268v0c0-8.432 6.836-15.268 15.268-15.268v0zM394.179 616.207c8.432 0 15.268 6.836 15.268 15.268s-6.836 15.268-15.268 15.268c-8.432 0-15.268-6.836-15.268-15.268v0c0-8.432 6.836-15.268 15.268-15.268v0zM552.97 497.113c8.432 0 15.268 6.836 15.268 15.268s-6.836 15.268-15.268 15.268c-8.432 0-15.268-6.836-15.268-15.268v0c0-8.432 6.836-15.268 15.268-15.268v0zM473.575 497.113c8.432 0 15.268 6.836 15.268 15.268s-6.836 15.268-15.268 15.268c-8.432 0-15.268-6.836-15.268-15.268v0c0-8.432 6.836-15.268 15.268-15.268v0zM394.179 497.113c8.432 0 15.268 6.836 15.268 15.268s-6.836 15.268-15.268 15.268c-8.432 0-15.268-6.836-15.268-15.268v0c0-8.432 6.836-15.268 15.268-15.268v0zM314.783 497.113c8.432 0 15.268 6.836 15.268 15.268s-6.836 15.268-15.268 15.268c-8.432 0-15.268-6.836-15.268-15.268v0c0-8.432 6.836-15.268 15.268-15.268v0zM513.272 556.66c8.432 0 15.268 6.836 15.268 15.268s-6.836 15.268-15.268 15.268c-8.432 0-15.268-6.836-15.268-15.268v0c0-8.432 6.836-15.268 15.268-15.268v0zM433.877 556.66c8.432 0 15.268 6.836 15.268 15.268s-6.836 15.268-15.268 15.268c-8.432 0-15.268-6.836-15.268-15.268v0c0-8.432 6.836-15.268 15.268-15.268v0zM354.481 556.66c8.432 0 15.268 6.836 15.268 15.268s-6.836 15.268-15.268 15.268c-8.432 0-15.268-6.836-15.268-15.268v0c0-8.432 6.836-15.268 15.268-15.268v0zM473.575 378.020c8.432 0 15.268 6.836 15.268 15.268s-6.836 15.268-15.268 15.268c-8.432 0-15.268-6.836-15.268-15.268v0c0-8.432 6.836-15.268 15.268-15.268v0zM394.179 378.020c8.432 0 15.268 6.836 15.268 15.268s-6.836 15.268-15.268 15.268c-8.432 0-15.268-6.836-15.268-15.268v0c0-8.432 6.836-15.268 15.268-15.268v0zM330.052 393.288c0-8.432-6.836-15.268-15.268-15.268s-15.268 6.836-15.268 15.268c0 8.432 6.836 15.268 15.268 15.268s15.268-6.836 15.268-15.268zM235.388 408.557c-8.432 0-15.268-6.836-15.268-15.268s6.836-15.268 15.268-15.268v0c8.432 0 15.268 6.836 15.268 15.268s-6.836 15.268-15.268 15.268v0zM513.272 437.567c8.432 0 15.268 6.836 15.268 15.268s-6.836 15.268-15.268 15.268c-8.432 0-15.268-6.836-15.268-15.268v0c0-8.432 6.836-15.268 15.268-15.268v0zM433.877 437.567c8.432 0 15.268 6.836 15.268 15.268s-6.836 15.268-15.268 15.268c-8.432 0-15.268-6.836-15.268-15.268v0c0-8.432 6.836-15.268 15.268-15.268v0zM354.481 437.567c8.432 0 15.268 6.836 15.268 15.268s-6.836 15.268-15.268 15.268c-8.432 0-15.268-6.836-15.268-15.268v0c0-8.432 6.836-15.268 15.268-15.268v0zM275.085 437.567c8.432 0 15.268 6.836 15.268 15.268s-6.836 15.268-15.268 15.268c-8.432 0-15.268-6.836-15.268-15.268v0c0-8.432 6.836-15.268 15.268-15.268v0zM394.179 258.926c8.432 0 15.268 6.836 15.268 15.268v0c0 8.432-6.836 15.268-15.268 15.268s-15.268-6.836-15.268-15.268v0c0-8.432 6.836-15.268 15.268-15.268v0zM314.783 258.926c0.243-0.014 0.528-0.022 0.815-0.022 7.992 0 14.55 6.141 15.213 13.962l0.004 0.056c0 8.432-6.836 15.268-15.268 15.268s-15.268-6.836-15.268-15.268v0c0.648-7.63 6.821-13.626 14.47-13.995l0.035-0.001zM235.388 289.463c-8.432 0-15.268-6.836-15.268-15.268v0c0-8.432 6.836-15.268 15.268-15.268v0c8.432 0 15.268 6.836 15.268 15.268v0c0.001 0.076 0.002 0.166 0.002 0.257 0 8.292-6.722 15.014-15.014 15.014-0.090 0-0.18-0.001-0.27-0.002h0.014zM155.992 289.463c-8.432 0-15.268-6.836-15.268-15.268v0c-0.001-0.075-0.002-0.164-0.002-0.252 0-8.573 6.95-15.523 15.523-15.523s15.523 6.95 15.523 15.523c0 8.573-6.95 15.523-15.523 15.523-0.089 0-0.177-0.001-0.266-0.002h0.013zM433.877 318.473c8.432 0 15.268 6.836 15.268 15.268s-6.836 15.268-15.268 15.268c-8.432 0-15.268-6.836-15.268-15.268v0c0-8.432 6.836-15.268 15.268-15.268v0zM354.481 318.473c8.432 0 15.268 6.836 15.268 15.268s-6.836 15.268-15.268 15.268c-8.432 0-15.268-6.836-15.268-15.268v0c0-8.432 6.836-15.268 15.268-15.268v0zM275.085 318.473c8.432 0 15.268 6.836 15.268 15.268s-6.836 15.268-15.268 15.268c-8.432 0-15.268-6.836-15.268-15.268v0c0-8.432 6.836-15.268 15.268-15.268v0zM195.69 349.264c-8.432 0-15.268-6.836-15.268-15.268s6.836-15.268 15.268-15.268v0c8.432 0 15.268 6.836 15.268 15.268s-6.836 15.268-15.268 15.268v0zM235.388 171.133c-0.075 0.001-0.164 0.002-0.252 0.002-8.573 0-15.523-6.95-15.523-15.523s6.95-15.523 15.523-15.523c8.573 0 15.523 6.95 15.523 15.523 0 0.089-0.001 0.177-0.002 0.266v-0.013c0 8.432-6.836 15.268-15.268 15.268v0zM155.992 171.133c-8.572-0.001-15.521-6.951-15.521-15.523s6.95-15.523 15.523-15.523c8.573 0 15.523 6.95 15.523 15.523 0 0.089-0.001 0.179-0.002 0.268v-0.013c0 0.001 0 0.001 0 0.002 0 8.432-6.836 15.268-15.268 15.268-0.089 0-0.179-0.001-0.268-0.002h0.013zM354.481 199.38c0.075-0.001 0.164-0.002 0.252-0.002 8.573 0 15.523 6.95 15.523 15.523s-6.95 15.523-15.523 15.523c-8.573 0-15.523-6.95-15.523-15.523 0-0.089 0.001-0.177 0.002-0.266v0.013c0-8.432 6.836-15.268 15.268-15.268v0zM275.085 199.38c0.075-0.001 0.164-0.002 0.252-0.002 8.573 0 15.523 6.95 15.523 15.523s-6.95 15.523-15.523 15.523c-8.573 0-15.523-6.95-15.523-15.523 0-0.089 0.001-0.177 0.002-0.266v0.013c0-8.432 6.836-15.268 15.268-15.268v0zM195.69 230.171c-7.677-1.017-13.539-7.522-13.539-15.396s5.862-14.378 13.46-15.387l0.079-0.009c7.677 1.017 13.539 7.522 13.539 15.396s-5.862 14.378-13.46 15.387l-0.079 0.009zM195.69 111.078c-8.432 0-15.268-6.836-15.268-15.268v0c0-8.432 6.836-15.268 15.268-15.268v0c0.076-0.001 0.166-0.002 0.257-0.002 8.292 0 15.014 6.722 15.014 15.014 0 0.090-0.001 0.18-0.002 0.27v-0.014c0 8.432-6.836 15.268-15.268 15.268v0zM116.549 111.078c-8.226-0.264-14.794-6.995-14.794-15.261 0-0.361 0.013-0.719 0.037-1.073l-0.003 0.048c-0.001-0.076-0.002-0.165-0.002-0.254 0-8.573 6.95-15.523 15.523-15.523s15.523 6.95 15.523 15.523c0 8.572-6.949 15.522-15.521 15.523v0z" />
<glyph unicode="&#xe95a;" glyph-name="intaefont-icon84" d="M797.027 960c-0.186 0.001-0.407 0.001-0.627 0.001-56.349 0-107.886-20.602-147.489-54.684l0.297 0.25-1.748-1.748-10.487-9.988-458.191-458.191c-29.287-29.73-47.388-70.551-47.442-115.599v-199.766l-120.353-120.353c-6.829-6.748-11.058-16.114-11.058-26.468s4.229-19.719 11.054-26.464l0.004-0.004c6.776-6.768 16.133-10.954 26.468-10.954s19.691 4.186 26.468 10.954v0l120.353 120.603h199.756c0.030 0 0.064 0 0.099 0 45.318 0 86.382 18.209 116.277 47.71l456.924 457.174c41.035 41.068 66.414 97.785 66.414 160.429s-25.379 119.362-66.415 160.431l0.001-0.001c-40.75 41.174-97.272 66.669-159.749 66.669-0.195 0-0.39 0-0.585-0.001h0.030zM206.248 320.531c0 0.060 0 0.131 0 0.202 0 24.393 9.505 46.565 25.012 63.017l-0.043-0.046 405.006 403.507v-161.802l-115.359-114.86-124.848-124.848v42.198c0 20.685-16.769 37.454-37.454 37.454s-37.454-16.769-37.454-37.454v0-118.605l-114.86-113.861zM447.953 168.466c-16.477-15.468-38.714-24.971-63.17-24.971-0.177 0-0.353 0-0.53 0.001h-124.821l115.109 112.862h118.356c20.685 0 37.454 16.769 37.454 37.454s-16.769 37.454-37.454 37.454v0h-43.447l114.61 114.61h160.055zM904.396 625.408l-105.371-104.622h-161.303l62.424 62.424 123.849 123.349c6.87 6.87 11.118 16.36 11.118 26.842 0 20.965-16.996 37.961-37.961 37.961-10.483 0-19.973-4.249-26.842-11.118v0l-59.178-59.927v157.558c24.063 16.811 53.93 26.861 86.145 26.861 83.707 0 151.565-67.858 151.565-151.565 0-0.051 0-0.101 0-0.152v0.008c0.001-0.178 0.001-0.388 0.001-0.599 0-41.815-16.99-79.663-44.442-107.015l-0.005-0.005z" />
<glyph unicode="&#xe95b;" glyph-name="intaefont-icon85" d="M957.331 893.331c-41.063 41.232-97.88 66.746-160.657 66.746-56.45 0-108.081-20.63-147.765-54.762l0.299 0.251-1.748-1.748-10.487-9.988-458.191-458.191c-29.287-29.73-47.388-70.551-47.442-115.599v-199.766l-120.353-120.353c-6.829-6.748-11.058-16.114-11.058-26.468s4.229-19.719 11.054-26.464l0.004-0.004c6.776-6.768 16.133-10.954 26.468-10.954s19.691 4.186 26.468 10.954v0l120.353 120.603h199.756c0.030 0 0.064 0 0.099 0 45.318 0 86.382 18.209 116.277 47.71l456.924 457.174c41.035 41.068 66.414 97.785 66.414 160.429s-25.379 119.362-66.415 160.431l0.001-0.001zM206.248 320.531c0 0.060 0 0.131 0 0.202 0 24.393 9.505 46.565 25.012 63.017l-0.043-0.046 99.878 99.878c2.542-4.847 7.492-8.123 13.218-8.24h0.016c8.274 0 14.982 6.708 14.982 14.982v0c0 0.003 0 0.006 0 0.009 0 5.772-3.32 10.77-8.155 13.186l-0.085 0.039 30.463 30.463h1.748c8.274 0 14.982 6.708 14.982 14.982v0s0 0 0 1.748l166.796 166.547c2.57-4.771 7.53-7.959 13.234-7.959 8.263 0 14.964 6.69 14.982 14.949v0.002c0 0.022 0 0.048 0 0.075 0 5.686-3.334 10.593-8.154 12.873l-0.087 0.037 31.711 30.713h1.498c0.001 0 0.001 0 0.002 0 8.274 0 14.982 6.708 14.982 14.982 0 0.088-0.001 0.175-0.002 0.263v-0.013s0 0 0 0l3.246 3.246v-161.053l-82.15-82.15c0.18 0.863 0.283 1.855 0.283 2.871s-0.103 2.008-0.299 2.966l0.016-0.095c0 8.274-6.708 14.982-14.982 14.982s-14.982-6.708-14.982-14.982c0-8.274 6.708-14.982 14.982-14.982v0c0.863-0.18 1.855-0.283 2.871-0.283s2.008 0.103 2.966 0.299l-0.095-0.016-33.709-33.709c-2.716 2.716-6.468 4.396-10.612 4.396-8.289 0-15.008-6.719-15.008-15.008 0-4.144 1.68-7.896 4.396-10.612v0l-33.209-32.96c-3.854-1.63-6.859-4.636-8.451-8.387l-0.039-0.103-53.185-53.435v37.454c2.625 2.659 4.245 6.314 4.245 10.347 0 0.049 0 0.098-0.001 0.147v-0.007c-0.008 6.239-3.766 11.597-9.141 13.945l-0.098 0.038c-6.455 11.587-18.632 19.296-32.611 19.296-18.099 0-33.18-12.924-36.517-30.048l-0.038-0.235c-1.961 5.988-7.499 10.238-14.030 10.238-8.136 0-14.732-6.596-14.732-14.732s6.596-14.732 14.732-14.732c6.53 0 12.068 4.249 14 10.133l0.030 0.104v-104.622c-2.353 5.194-7.492 8.742-13.459 8.742-0.096 0-0.192-0.001-0.288-0.003h0.014c-8.274 0-14.982-6.708-14.982-14.982s6.708-14.982 14.982-14.982v0c2.084 0.028 4.054 0.485 5.836 1.286l-0.093-0.037-33.959-33.959c-2.716 2.716-6.468 4.396-10.612 4.396-8.289 0-15.008-6.719-15.008-15.008 0-4.144 1.68-7.896 4.396-10.612v0l-33.209-33.959c-3.954-1.472-7.018-4.536-8.457-8.391l-0.032-0.098-8.739-8.49zM427.978 154.234c-0.676 0.122-1.453 0.192-2.247 0.192s-1.572-0.070-2.327-0.204l0.080 0.012c-0.015 0-0.032 0-0.050 0-5.826 0-10.849-3.44-13.147-8.4l-0.037-0.090c-7.41-2.424-15.959-3.955-24.822-4.241l-0.147-0.004h-24.97c-1.012 7.193-7.098 12.676-14.476 12.734h-0.006c-7.343-0.167-13.37-5.593-14.471-12.65l-0.011-0.084h-48.94c-0.957 5.873-5.277 10.527-10.885 11.963l-0.102 0.022 29.963 30.213c1.535-0.731 3.329-1.184 5.221-1.248l0.022-0.001c8.274 0 14.982 6.708 14.982 14.982v0c0.193 0.788 0.303 1.692 0.303 2.622s-0.111 1.834-0.319 2.7l0.016-0.078 52.935 53.684h35.207c0.405-8.004 6.932-14.356 14.969-14.482h0.012c0.002 0 0.005 0 0.008 0 8.099 0 14.696 6.426 14.973 14.457l0.001 0.025h47.941c0.405-8.004 6.932-14.356 14.969-14.482h0.012c8.274 0 14.982 6.708 14.982 14.982v0c0 0.032 0 0.070 0 0.108 0 2.637-0.743 5.101-2.032 7.193l0.034-0.059c8.947 6.914 14.653 17.648 14.653 29.714 0 20.658-16.724 37.409-37.371 37.454h-43.451l38.952 38.952c1.524-6.579 7.304-11.419 14.225-11.486h0.007c8.274 0 14.982 6.708 14.982 14.982v0c-0.067 6.929-4.907 12.709-11.387 14.213l-0.099 0.019 30.213 30.213c0.788-0.124 1.697-0.195 2.622-0.195s1.834 0.071 2.721 0.207l-0.099-0.013c8.274 0 14.982 6.708 14.982 14.982v0c0.124 0.788 0.195 1.697 0.195 2.622s-0.071 1.834-0.207 2.721l0.013-0.099 8.49 8.49h49.939c-5.336-2.371-8.989-7.624-8.989-13.731 0-8.274 6.708-14.982 14.982-14.982s14.98 6.706 14.982 14.979v0c0 0.019 0 0.041 0 0.064 0 6.157-3.777 11.432-9.141 13.634l-0.098 0.036h66.169c-5.338-2.37-8.994-7.625-8.994-13.733 0-8.274 6.708-14.982 14.982-14.982 0.002 0 0.004 0 0.006 0v0l-33.709-32.46c-2.179 1.713-4.962 2.747-7.986 2.747-0.001 0-0.003 0-0.004 0v0c-8.274 0-14.982-6.708-14.982-14.982v0c0-0.001 0-0.003 0-0.004 0-3.024 1.034-5.807 2.768-8.014l-0.021 0.028-167.545-167.795c0 8.274-6.708 14.982-14.982 14.982s-14.982-6.708-14.982-14.982c0-8.274 6.708-14.982 14.982-14.982v0 0l-15.231-15.231c-5.597-5.001-11.908-9.4-18.714-12.987l-0.513-0.246zM724.116 445.878l-13.983-13.983c0 0.019 0 0.041 0 0.064 0 6.157-3.777 11.432-9.141 13.634l-0.098 0.036zM937.356 677.595c-2.334 2.010-5.393 3.237-8.737 3.246h-0.002c-8.196-0.102-14.801-6.77-14.801-14.981 0-6.603 4.271-12.208 10.201-14.203l0.106-0.031c-6.271-9.873-13.107-18.455-20.749-26.243l0.024 0.025-5.743-5.493c-2.24 1.538-5.004 2.467-7.983 2.497h-0.008c-8.274 0-14.982-6.708-14.982-14.982v0c0.125-3.012 1.136-5.766 2.776-8.033l-0.030 0.043-78.404-78.654h-161.303l62.424 62.424 20.475 20.725c2.385-5.302 7.621-8.927 13.704-8.927 7.37 0 13.497 5.322 14.748 12.332l0.013 0.091c-0.067 6.929-4.907 12.709-11.387 14.213l-0.099 0.019 30.213 30.213c0.788-0.193 1.692-0.303 2.622-0.303s1.834 0.111 2.7 0.319l-0.078-0.016c8.274 0 14.982 6.708 14.982 14.982v0c-0.064 1.915-0.518 3.709-1.283 5.326l0.035-0.082 37.205 34.458c6.87 6.87 11.118 16.36 11.118 26.842 0 20.965-16.996 37.961-37.961 37.961-10.483 0-19.973-4.249-26.842-11.118l-24.97-24.97c-2.716 2.716-6.468 4.396-10.612 4.396-8.289 0-15.008-6.719-15.008-15.008 0-4.144 1.68-7.896 4.396-10.612v0l-13.234-13.234v157.058c23.854 16.757 53.497 26.78 85.481 26.78 33.64 0 64.69-11.087 89.696-29.807l-0.391 0.28c-6.473-1.62-11.198-7.37-11.236-14.228v-0.004c0.554-7.82 7.034-13.954 14.946-13.954 7.382 0 13.517 5.339 14.754 12.366l0.013 0.090c11.903-12.163 21.788-26.362 29.074-42.015l0.39-0.932c-0.788 0.177-1.693 0.278-2.622 0.278s-1.834-0.101-2.705-0.294l0.083 0.015c-7.533-0.998-13.285-7.381-13.285-15.107s5.752-14.108 13.208-15.098l0.078-0.008c5.725 0.173 10.652 3.429 13.193 8.157l0.041 0.083c3.984-12.262 6.584-26.431 7.229-41.108l0.012-0.341c-0.059-19.958-3.903-39.002-10.852-56.473l0.365 1.041zM851.71 797.698c-0.074 0.001-0.161 0.002-0.248 0.002-8.412 0-15.231-6.819-15.231-15.231s6.819-15.231 15.231-15.231c8.412 0 15.231 6.819 15.231 15.231 0 0.087-0.001 0.174-0.002 0.261v-0.013c0 8.274-6.708 14.982-14.982 14.982v0zM774.055 797.698c-0.074 0.001-0.161 0.002-0.248 0.002-8.412 0-15.231-6.819-15.231-15.231s6.819-15.231 15.231-15.231c8.412 0 15.231 6.819 15.231 15.231 0 0.087-0.001 0.174-0.002 0.261v-0.013c0 8.274-6.708 14.982-14.982 14.982v0zM812.758 856.127c-8.412 0-15.231-6.819-15.231-15.231s6.819-15.231 15.231-15.231c8.412 0 15.231 6.819 15.231 15.231v0c0.001 0.075 0.002 0.163 0.002 0.252 0 8.274-6.708 14.982-14.982 14.982-0.089 0-0.177-0.001-0.265-0.002h0.013zM735.103 856.127c-0.074 0.001-0.162 0.002-0.25 0.002-8.412 0-15.231-6.819-15.231-15.231s6.819-15.231 15.231-15.231c8.411 0 15.23 6.818 15.231 15.229v0c0.001 0.074 0.002 0.162 0.002 0.25 0 8.274-6.708 14.982-14.982 14.982-0.001 0-0.001 0-0.002 0v0zM851.71 680.841c-8.274 0-14.982-6.708-14.982-14.982s6.708-14.982 14.982-14.982v0c8.274 0 14.982 6.708 14.982 14.982s-6.708 14.982-14.982 14.982v0zM618.245 650.877c8.274 0 14.982 6.708 14.982 14.982s-6.708 14.982-14.982 14.982c-8.274 0-14.982-6.708-14.982-14.982v0c0-8.274 6.708-14.982 14.982-14.982v0zM540.34 650.877c8.274 0 14.982 6.708 14.982 14.982s-6.708 14.982-14.982 14.982c-8.274 0-14.982-6.708-14.982-14.982v0c0-8.274 6.708-14.982 14.982-14.982v0zM890.663 739.269c-8.274 0-14.982-6.708-14.982-14.982v0c0-8.274 6.708-14.982 14.982-14.982v0c0.075-0.001 0.163-0.002 0.252-0.002 8.136 0 14.732 6.596 14.732 14.732 0 0.089-0.001 0.177-0.002 0.265v-0.013c0 8.274-6.708 14.982-14.982 14.982v0zM774.055 563.983c-8.274 0-14.982-6.708-14.982-14.982s6.708-14.982 14.982-14.982c8.274 0 14.982 6.708 14.982 14.982v0c0 8.274-6.708 14.982-14.982 14.982v0zM696.15 563.983c-8.274 0-14.982-6.708-14.982-14.982s6.708-14.982 14.982-14.982v0c8.274 0 14.982 6.708 14.982 14.982s-6.708 14.982-14.982 14.982v0zM462.436 534.020c8.274 0 14.982 6.708 14.982 14.982s-6.708 14.982-14.982 14.982c-8.274 0-14.982-6.708-14.982-14.982v0c0-8.274 6.708-14.982 14.982-14.982v0zM827.74 607.43c0-8.274-6.708-14.982-14.982-14.982s-14.982 6.708-14.982 14.982c0 8.274 6.708 14.982 14.982 14.982s14.982-6.708 14.982-14.982zM579.293 592.449c8.274 0 14.982 6.708 14.982 14.982s-6.708 14.982-14.982 14.982c-8.274 0-14.982-6.708-14.982-14.982v0c0-8.274 6.708-14.982 14.982-14.982v0zM501.388 592.449c8.274 0 14.982 6.708 14.982 14.982s-6.708 14.982-14.982 14.982c-8.274 0-14.982-6.708-14.982-14.982v0c0-8.274 6.708-14.982 14.982-14.982v0zM424.482 475.591c8.274 0 14.982 6.708 14.982 14.982s-6.708 14.982-14.982 14.982c-8.274 0-14.982-6.708-14.982-14.982v0c0-8.274 6.708-14.982 14.982-14.982v0zM540.34 300.305c8.274 0 14.982 6.708 14.982 14.982s-6.708 14.982-14.982 14.982c-8.274 0-14.982-6.708-14.982-14.982v0c0-8.274 6.708-14.982 14.982-14.982v0zM228.721 300.305c8.274 0 14.982 6.708 14.982 14.982s-6.708 14.982-14.982 14.982v0c-8.274 0-14.982-6.708-14.982-14.982s6.708-14.982 14.982-14.982v0zM579.293 358.734c8.274 0 14.982 6.708 14.982 14.982s-6.708 14.982-14.982 14.982c-8.274 0-14.982-6.708-14.982-14.982v0c0-8.274 6.708-14.982 14.982-14.982v0zM267.673 358.734c8.274 0 14.982 6.708 14.982 14.982s-6.708 14.982-14.982 14.982v0c-8.274 0-14.982-6.708-14.982-14.982s6.708-14.982 14.982-14.982v0zM384.531 213.661c-0.074 0.001-0.162 0.002-0.25 0.002-8.412 0-15.231-6.819-15.231-15.231s6.819-15.231 15.231-15.231c8.411 0 15.23 6.818 15.231 15.229v0c0.001 0.074 0.002 0.162 0.002 0.25 0 8.274-6.708 14.982-14.982 14.982-0.001 0-0.001 0-0.002 0v0z" />
<glyph unicode="&#xe95c;" glyph-name="intaefont-icon86" d="M1012.704 697.301l-250.877 251.665c-7.263 6.82-17.065 11.010-27.846 11.010s-20.583-4.19-27.868-11.030l0.022 0.020-183.889-183.889c-7.121-7.129-11.524-16.973-11.524-27.846s4.404-20.717 11.524-27.846v0l4.729-4.729-395.624-164.975c-11.173-4.858-19.549-14.354-22.788-25.989l-0.067-0.281-108.495-530.126c-0.062-0.825-0.098-1.788-0.098-2.758s0.036-1.933 0.105-2.886l-0.008 0.127s0-2.102 0-2.89c-0.001-0.090-0.001-0.196-0.001-0.302 0-4.613 0.868-9.024 2.45-13.078l-0.084 0.245c0.021-0.392 0.033-0.851 0.033-1.313s-0.012-0.921-0.035-1.377l0.003 0.064c1.962-4.365 4.521-8.102 7.628-11.306l-0.010 0.010c7.158-7.611 17.294-12.352 28.537-12.352 0.219 0 0.437 0.002 0.655 0.005h7.848l529.075 107.969c12.838 2.727 23.167 11.496 28.014 23.123l0.095 0.257 164.712 394.048 4.991-4.991c7.093-7.14 16.916-11.559 27.772-11.559 0.026 0 0.052 0 0.078 0h-0.004c10.872 0.041 20.707 4.449 27.847 11.56l-0.001-0.001 182.576 183.889c7.914 7.189 12.862 17.521 12.862 29.008 0 11.236-4.734 21.366-12.317 28.505l-0.020 0.019zM539.846 119.364l-378.024-78.81 187.304 183.889c16.662-8.211 36.271-13.014 57.002-13.014 72.542 0 131.349 58.807 131.349 131.349s-58.807 131.349-131.349 131.349c-72.542 0-131.349-58.807-131.349-131.349 0-0.32 0.001-0.639 0.003-0.958v0.049c0.155-23.319 6.474-45.13 17.406-63.926l-0.331 0.616-186.779-185.465 78.81 382.227 403.505 169.441 121.892-121.367zM353.855 343.971c0 0.012 0 0.027 0 0.042 0 14.563 5.925 27.743 15.497 37.259l0.002 0.002c9.497 9.442 22.587 15.279 37.041 15.279 28.939 0 52.414-23.397 52.539-52.307v-0.012c0-29.017-23.523-52.54-52.54-52.54s-52.54 23.523-52.54 52.54v0zM802.282 543.622l-18.652 18.389-177.584 176.271 126.884 127.146 196.236-196.499z" />
<glyph unicode="&#xe95d;" glyph-name="intaefont-icon87" d="M1012.704 697.301l-250.877 251.665c-7.263 6.82-17.065 11.010-27.846 11.010s-20.583-4.19-27.868-11.030l0.022 0.020-183.889-183.889c-7.121-7.129-11.524-16.973-11.524-27.846s4.404-20.717 11.524-27.846v0l4.729-4.729-395.624-164.975c-11.173-4.858-19.549-14.354-22.788-25.989l-0.067-0.281-108.495-530.126c-0.062-0.825-0.098-1.788-0.098-2.758s0.036-1.933 0.105-2.886l-0.008 0.127s0-2.102 0-2.89c-0.001-0.090-0.001-0.196-0.001-0.302 0-4.613 0.868-9.024 2.45-13.078l-0.084 0.245c0.021-0.392 0.033-0.851 0.033-1.313s-0.012-0.921-0.035-1.377l0.003 0.064c1.962-4.365 4.521-8.102 7.628-11.306l-0.010 0.010c7.158-7.611 17.294-12.352 28.537-12.352 0.219 0 0.437 0.002 0.655 0.005h7.848l529.075 107.969c12.838 2.727 23.167 11.496 28.014 23.123l0.095 0.257 164.712 394.048 4.991-4.991c7.093-7.14 16.916-11.559 27.772-11.559 0.026 0 0.052 0 0.078 0h-0.004c10.872 0.041 20.707 4.449 27.847 11.56l-0.001-0.001 182.576 183.889c7.914 7.189 12.862 17.521 12.862 29.008 0 11.236-4.734 21.366-12.317 28.505l-0.020 0.019zM539.846 119.364l-62.785-12.872c-2.494 5.616-8.022 9.463-14.448 9.463-8.705 0-15.762-7.057-15.762-15.762 0-0.002 0-0.004 0-0.006v0l-55.167-11.033c2.913 2.696 4.73 6.54 4.73 10.807 0 0.079-0.001 0.159-0.002 0.238v-0.012c0 8.705-7.057 15.762-15.762 15.762s-15.762-7.057-15.762-15.762v0c0.056-6.62 4.117-12.278 9.876-14.672l0.106-0.039-186.253-39.405c-2.888 4.086-7.561 6.743-12.859 6.83h-1.589l33.888 33.363c2.36-1.896 5.37-3.071 8.651-3.152h0.018c0.078-0.001 0.17-0.002 0.263-0.002 8.705 0 15.762 7.057 15.762 15.762 0 0.001 0 0.002 0 0.002v0c-0.081 3.299-1.256 6.31-3.174 8.697l0.022-0.028 119.528 116.901c4.46-2.25 9.848-4.474 15.41-6.316l0.878-0.252c1.294-7.198 7.502-12.592 14.972-12.61h0.002c5.050 0.044 9.518 2.497 12.317 6.263l0.029 0.041c2.002-0.125 4.342-0.196 6.699-0.196s4.697 0.071 7.018 0.211l-0.319-0.015c14.509 0.093 28.405 2.587 41.353 7.103l-0.897-0.272c1.818-6.844 7.958-11.805 15.257-11.805 8.422 0 15.301 6.605 15.74 14.918l0.002 0.039c-0.015 3.605-1.302 6.907-3.435 9.482l0.020-0.025c9.432 5.859 17.61 12.366 24.958 19.704l-0.001-0.001c20.993 21.136 34.761 49.473 37.274 80.982l0.029 0.455c2.249-1.39 4.953-2.255 7.851-2.363l0.030-0.001c0.090-0.002 0.196-0.003 0.302-0.003 8.705 0 15.762 7.057 15.762 15.762s-7.057 15.762-15.762 15.762c-3.244 0-6.259-0.98-8.765-2.66l0.057 0.036c-2.141 19.653-8.41 37.476-17.922 53.108l0.321-0.568c-0.882 2.948-2.528 5.444-4.71 7.339l-0.019 0.016c-4.537 5.895-9.271 11.129-14.385 15.965l-0.063 0.059c-7.663 7.552-16.284 14.166-25.656 19.634l-0.614 0.331c3.229 2.899 5.25 7.086 5.25 11.745 0 8.705-7.057 15.762-15.762 15.762-8.586 0-15.568-6.865-15.758-15.405v-0.018c-12.026 4.267-25.9 6.844-40.341 7.091l-0.115 0.002c-3.678 0-7.356 0-11.033 0-2.355 5.974-8.034 10.144-14.699 10.245h-0.012c-8.705 0-15.762-7.057-15.762-15.762v0s0 0 0 0c-52.681-17.221-90.068-65.923-90.068-123.358 0-23.621 6.323-45.764 17.37-64.831l-0.332 0.622-59.107-60.158s0 0 0 0c0.001 0.078 0.002 0.17 0.002 0.263 0 8.85-7.174 16.025-16.025 16.025s-16.025-7.174-16.025-16.025c0-8.849 7.173-16.023 16.022-16.025v0l-32.575-32.837c-2.357 1.618-5.264 2.596-8.398 2.627h-0.008c-8.705 0-15.762-7.057-15.762-15.762v0c0.159-3.045 1.116-5.837 2.666-8.207l-0.039 0.063-57.268-57.531 23.117 114.274c2.326-1.422 5.126-2.291 8.124-2.364h0.020c8.705 0 15.762 7.057 15.762 15.762s-7.057 15.762-15.762 15.762h-2.102l32.049 157.619c2.717-2.758 6.493-4.466 10.668-4.466 0.036 0 0.072 0 0.108 0h-0.006c0.078-0.001 0.17-0.002 0.263-0.002 8.705 0 15.762 7.057 15.762 15.762 0 0.001 0 0.002 0 0.002v0c0 0.001 0 0.001 0 0.002 0 8.705-7.057 15.762-15.762 15.762-0.092 0-0.185-0.001-0.277-0.002h0.014c-2.015-0.067-3.902-0.545-5.603-1.35l0.086 0.037 11.296 55.692 144.747 60.158c-1.428-2.149-2.302-4.776-2.364-7.602v-0.016c0-8.705 7.057-15.762 15.762-15.762s15.762 7.057 15.762 15.762v0c0.001 0.056 0.001 0.122 0.001 0.188 0 7.109-4.869 13.081-11.454 14.763l-0.106 0.023 101.402 43.871c1.818-6.844 7.958-11.805 15.257-11.805 8.422 0 15.301 6.605 15.74 14.918l0.002 0.039c0 3.269-1.086 6.284-2.916 8.705l0.026-0.036 99.3 41.506c2.797-2.691 6.579-4.376 10.753-4.466h0.017c3.169 0.131 6.066 1.195 8.452 2.921l-0.045-0.031 32.837-32.837c-8.705 0-15.762-7.057-15.762-15.762v0c0-8.705 7.057-15.762 15.762-15.762s15.762 7.057 15.762 15.762v0l67.514-66.726-42.557-101.927c-8.331-0.291-14.974-7.115-14.974-15.49 0-0.003 0-0.006 0-0.009v0c0-0.024 0-0.053 0-0.082 0-4.005 1.494-7.662 3.955-10.442l-0.014 0.017-17.075-41.244c-2.798 3.67-7.164 6.020-12.081 6.042h-0.004c-8.705 0-15.762-7.057-15.762-15.762s7.057-15.762 15.762-15.762h1.576zM369.355 382.063c9.468 9.523 22.558 15.436 37.028 15.499h4.215c2.797-2.761 6.643-4.467 10.886-4.467 0.052 0 0.103 0 0.155 0.001h-0.008c0.75-0.131 1.614-0.206 2.496-0.206s1.745 0.075 2.586 0.219l-0.090-0.013c6.575-2.681 12.173-6.509 16.801-11.283l0.012-0.013c5.734-5.685 10.087-12.754 12.517-20.664l0.093-0.352c-5.428-2.531-9.136-7.919-9.194-14.178v-0.008c0-0.038-0.001-0.084-0.001-0.129 0-6.676 4.22-12.365 10.138-14.547l0.107-0.035c-2.292-9.635-7.085-17.927-13.656-24.426l-0.005-0.004c-3.793-3.805-8.221-6.973-13.112-9.333l-0.286-0.124c-2.341 1.695-5.237 2.758-8.375 2.889l-0.031 0.001c-5.974-0.101-11.115-3.567-13.62-8.579l-0.041-0.090c-0.475-0.015-1.033-0.024-1.594-0.024-14.445 0-27.528 5.829-37.026 15.264l0.003-0.003c-9.52 9.51-15.409 22.653-15.409 37.172s5.889 27.662 15.409 37.171l0.001 0.001zM802.282 544.41l-177.847 175.483-18.389 18.389 126.884 127.146 196.236-196.499zM544.575 605.882c-8.705 0-15.762-7.057-15.762-15.762v0c0-8.705 7.057-15.762 15.762-15.762s15.762 7.057 15.762 15.762v0c0 8.705-7.057 15.762-15.762 15.762v0zM626.537 451.678c8.705 0 15.762 7.057 15.762 15.762v0c0 8.705-7.057 15.762-15.762 15.762s-15.762-7.057-15.762-15.762v0c0-8.705 7.057-15.762 15.762-15.762v0zM544.575 483.202c-8.705 0-15.762-7.057-15.762-15.762v0c0-8.705 7.057-15.762 15.762-15.762s15.762 7.057 15.762 15.762v0c0 8.705-7.057 15.762-15.762 15.762v0zM298.689 483.202c-8.705 0-15.762-7.057-15.762-15.762v0c0-8.705 7.057-15.762 15.762-15.762s15.762 7.057 15.762 15.762v0c0 8.705-7.057 15.762-15.762 15.762v0zM216.727 483.202c-8.705 0-15.762-7.057-15.762-15.762v0c1.050-7.925 7.765-13.977 15.893-13.977s14.843 6.052 15.884 13.895l0.009 0.082c0 0.001 0 0.001 0 0.002 0 8.705-7.057 15.762-15.762 15.762-0.092 0-0.185-0.001-0.277-0.002h0.014zM667.518 513.412c0.078-0.001 0.169-0.002 0.261-0.002 8.85 0 16.025 7.174 16.025 16.025s-7.174 16.025-16.025 16.025c-8.85 0-16.025-7.174-16.025-16.025 0-0.092 0.001-0.183 0.002-0.274v0.014c0-8.705 7.057-15.762 15.762-15.762v0zM585.556 544.673c-0.078 0.001-0.17 0.002-0.263 0.002-8.85 0-16.025-7.174-16.025-16.025s7.174-16.025 16.025-16.025c8.849 0 16.023 7.173 16.025 16.022v0c0.001 0.078 0.002 0.17 0.002 0.263 0 8.705-7.057 15.762-15.762 15.762-0.001 0-0.002 0-0.002 0v0zM503.594 544.673c-0.078 0.001-0.17 0.002-0.263 0.002-8.85 0-16.025-7.174-16.025-16.025s7.174-16.025 16.025-16.025c8.849 0 16.023 7.173 16.025 16.022v0c0.001 0.078 0.002 0.17 0.002 0.263 0 8.705-7.057 15.762-15.762 15.762-0.001 0-0.002 0-0.002 0v0zM421.632 544.673c-0.078 0.001-0.17 0.002-0.263 0.002-8.85 0-16.025-7.174-16.025-16.025s7.174-16.025 16.025-16.025c8.849 0 16.023 7.173 16.025 16.022v0c0.001 0.078 0.002 0.17 0.002 0.263 0 8.705-7.057 15.762-15.762 15.762-0.001 0-0.002 0-0.002 0v0zM380.651 329.523c8.705 0 15.762 7.057 15.762 15.762s-7.057 15.762-15.762 15.762c-8.705 0-15.762-7.057-15.762-15.762v0c0-8.705 7.057-15.762 15.762-15.762v0zM216.727 360.259c-8.591-0.148-15.499-7.147-15.499-15.76 0-8.705 7.057-15.762 15.762-15.762s15.761 7.056 15.762 15.76v0c0 0.001 0 0.001 0 0.002 0 8.705-7.057 15.762-15.762 15.762-0.092 0-0.185-0.001-0.277-0.002h0.014zM585.556 421.73c-8.705 0-15.762-7.057-15.762-15.762v0c0-8.705 7.057-15.762 15.762-15.762s15.762 7.057 15.762 15.762v0c0 8.705-7.057 15.762-15.762 15.762v0zM257.708 421.73c-8.705 0-15.762-7.057-15.762-15.762v0c0-8.705 7.057-15.762 15.762-15.762v0c0.079-0.001 0.172-0.002 0.265-0.002 8.56 0 15.499 6.939 15.499 15.499 0 0.093-0.001 0.186-0.002 0.279v-0.014c0 8.705-7.057 15.762-15.762 15.762v0zM544.575 237.316c-8.705 0-15.762-7.057-15.762-15.762s7.057-15.762 15.762-15.762c8.705 0 15.762 7.057 15.762 15.762v0c0 8.705-7.057 15.762-15.762 15.762v0zM585.556 298.787c-8.705 0-15.762-7.057-15.762-15.762s7.057-15.762 15.762-15.762c8.705 0 15.762 7.057 15.762 15.762v0c0 8.705-7.057 15.762-15.762 15.762v0zM257.708 298.787c-8.705 0-15.762-7.057-15.762-15.762s7.057-15.762 15.762-15.762v0c8.705 0 15.762 7.057 15.762 15.762s-7.057 15.762-15.762 15.762v0zM175.746 298.787c-8.591-0.148-15.499-7.147-15.499-15.76 0-8.705 7.057-15.762 15.762-15.762s15.761 7.056 15.762 15.76v0c0 0.001 0 0.001 0 0.002 0 8.705-7.057 15.762-15.762 15.762-0.092 0-0.185-0.001-0.277-0.002h0.014zM298.689 114.372c-8.705 0-15.762-7.057-15.762-15.762s7.057-15.762 15.762-15.762c8.705 0 15.762 7.057 15.762 15.762v0c0 8.705-7.057 15.762-15.762 15.762v0zM503.594 175.844c-8.705 0-15.762-7.057-15.762-15.762s7.057-15.762 15.762-15.762c8.705 0 15.762 7.057 15.762 15.762v0c0 8.705-7.057 15.762-15.762 15.762v0zM421.632 175.844c-8.705 0-15.762-7.057-15.762-15.762s7.057-15.762 15.762-15.762c8.705 0 15.762 7.057 15.762 15.762v0c0 8.705-7.057 15.762-15.762 15.762v0zM339.67 175.844c-8.705 0-15.762-7.057-15.762-15.762s7.057-15.762 15.762-15.762c8.705 0 15.762 7.057 15.762 15.762v0c0 8.705-7.057 15.762-15.762 15.762v0z" />
<glyph unicode="&#xe95e;" glyph-name="intaefont-icon88" horiz-adv-x="1079" d="M943.793 530.318c0.629-0.018 1.37-0.028 2.113-0.028 43.798 0 79.303 35.505 79.303 79.303 0 0.222-0.001 0.444-0.003 0.665v-0.034 324.448c0.173 1.044 0.272 2.247 0.272 3.472 0 12.323-9.99 22.313-22.313 22.313-1.591 0-3.143-0.166-4.639-0.483l0.146 0.026c-18.393 0-27.439-8.443-27.439-25.329v-324.448c0.137-0.97 0.214-2.091 0.214-3.23 0-13.489-10.935-24.424-24.424-24.424-1.139 0-2.26 0.078-3.357 0.229l0.127-0.014h-809.008c-0.97-0.137-2.091-0.214-3.23-0.214-13.489 0-24.424 10.935-24.424 24.424 0 1.139 0.078 2.26 0.229 3.357l-0.014-0.127v324.448c0 16.886-9.046 25.329-27.439 25.329-0.885 0.124-1.907 0.195-2.946 0.195-12.323 0-22.313-9.99-22.313-22.313 0-1.133 0.084-2.246 0.247-3.333l-0.015 0.123v-324.448c-0.014-0.555-0.023-1.208-0.023-1.863 0-21.508 8.901-40.938 23.22-54.806l0.020-0.020c13.887-14.34 33.317-23.241 54.825-23.241 0.655 0 1.308 0.008 1.959 0.025l-0.096-0.002zM79.906 420.561c0.948-0.13 2.043-0.205 3.156-0.205 13.489 0 24.424 10.935 24.424 24.424 0 0.922-0.051 1.832-0.151 2.727l0.010-0.11c0.17 1.077 0.268 2.32 0.268 3.585 0 13.322-10.8 24.122-24.122 24.122-1.265 0-2.507-0.097-3.72-0.285l0.135 0.017h-52.466c-1.077 0.17-2.32 0.268-3.585 0.268-13.322 0-24.122-10.8-24.122-24.122 0-1.265 0.097-2.507 0.285-3.72l-0.017 0.135c-0.137-0.97-0.214-2.091-0.214-3.23 0-13.489 10.935-24.424 24.424-24.424 1.139 0 2.26 0.078 3.357 0.229l-0.127-0.014zM241.225 420.561c1.225-0.218 2.636-0.342 4.076-0.342 13.489 0 24.424 10.935 24.424 24.424 0 0.971-0.057 1.928-0.167 2.869l0.011-0.114c0.253 1.313 0.398 2.823 0.398 4.366 0 13.322-10.8 24.122-24.122 24.122-1.634 0-3.231-0.163-4.774-0.472l0.154 0.026h-51.562c-1.077 0.17-2.32 0.268-3.585 0.268-13.322 0-24.122-10.8-24.122-24.122 0-1.265 0.097-2.507 0.285-3.72l-0.017 0.135c-0.137-0.97-0.214-2.091-0.214-3.23 0-13.489 10.935-24.424 24.424-24.424 1.139 0 2.26 0.078 3.357 0.229l-0.127-0.014zM404.353 420.561c0.97-0.137 2.091-0.214 3.23-0.214 13.489 0 24.424 10.935 24.424 24.424 0 1.139-0.078 2.26-0.229 3.357l0.014-0.127c0.17 1.077 0.268 2.32 0.268 3.585 0 13.322-10.8 24.122-24.122 24.122-1.265 0-2.507-0.097-3.72-0.285l0.135 0.017h-54.577c-16.886 0-25.329-9.046-25.329-27.439s8.443-27.439 25.329-27.439zM566.577 420.561c0.948-0.13 2.043-0.205 3.156-0.205 13.489 0 24.424 10.935 24.424 24.424 0 0.922-0.051 1.832-0.151 2.727l0.010-0.11c0.17 1.077 0.268 2.32 0.268 3.585 0 13.322-10.8 24.122-24.122 24.122-1.265 0-2.507-0.097-3.72-0.285l0.135 0.017h-53.974c-1.077 0.17-2.32 0.268-3.585 0.268-13.322 0-24.122-10.8-24.122-24.122 0-1.265 0.097-2.507 0.285-3.72l-0.017 0.135c-0.137-0.97-0.214-2.091-0.214-3.23 0-13.489 10.935-24.424 24.424-24.424 1.139 0 2.26 0.078 3.357 0.229l-0.127-0.014zM728.801 420.561c16.886 0 25.329 9.347 25.329 27.439s-8.443 27.439-25.329 27.439h-54.577c-1.077 0.17-2.32 0.268-3.585 0.268-13.322 0-24.122-10.8-24.122-24.122 0-1.265 0.097-2.507 0.285-3.72l-0.017 0.135c-0.137-0.97-0.214-2.091-0.214-3.23 0-13.489 10.935-24.424 24.424-24.424 1.139 0 2.26 0.078 3.357 0.229l-0.127-0.014zM888.914 420.561c0.97-0.137 2.091-0.214 3.23-0.214 13.489 0 24.424 10.935 24.424 24.424 0 1.139-0.078 2.26-0.229 3.357l0.014-0.127c0.17 1.077 0.268 2.32 0.268 3.585 0 13.322-10.8 24.122-24.122 24.122-1.265 0-2.507-0.097-3.72-0.285l0.135 0.017h-52.466c-1.077 0.17-2.32 0.268-3.585 0.268-13.322 0-24.122-10.8-24.122-24.122 0-1.265 0.097-2.507 0.285-3.72l-0.017 0.135c-0.137-0.97-0.214-2.091-0.214-3.23 0-13.489 10.935-24.424 24.424-24.424 1.139 0 2.26 0.078 3.357 0.229l-0.127-0.014zM1051.138 420.561c0.97-0.137 2.091-0.214 3.23-0.214 13.489 0 24.424 10.935 24.424 24.424 0 1.139-0.078 2.26-0.229 3.357l0.014-0.127c0.17 1.077 0.268 2.32 0.268 3.585 0 13.322-10.8 24.122-24.122 24.122-1.265 0-2.507-0.097-3.72-0.285l0.135 0.017h-52.466c-1.077 0.17-2.32 0.268-3.585 0.268-13.322 0-24.122-10.8-24.122-24.122 0-1.265 0.097-2.507 0.285-3.72l-0.017 0.135c-0.137-0.97-0.214-2.091-0.214-3.23 0-13.489 10.935-24.424 24.424-24.424 1.139 0 2.26 0.078 3.357 0.229l-0.127-0.014zM998.671-65.206c16.886 0 25.329 9.347 25.329 27.439v323.543c0.007 0.393 0.011 0.856 0.011 1.32 0 22.056-8.87 42.041-23.237 56.582l0.008-0.008c-13.876 15.044-33.688 24.435-55.692 24.435-0.456 0-0.911-0.004-1.365-0.012l0.068 0.001h-809.008c-0.375 0.007-0.818 0.011-1.261 0.011-21.922 0-41.649-9.395-55.376-24.378l-0.051-0.056c-14.358-14.352-23.238-34.182-23.238-56.087 0-0.636 0.007-1.269 0.022-1.901l-0.002 0.094v-322.337c0-18.092 8.443-27.439 25.027-27.439 0.97-0.137 2.091-0.214 3.23-0.214 13.489 0 24.424 10.935 24.424 24.424 0 1.139-0.078 2.26-0.229 3.357l0.014-0.127v322.337c-0.137 0.97-0.214 2.091-0.214 3.23 0 13.489 10.935 24.424 24.424 24.424 1.139 0 2.26-0.078 3.357-0.229l-0.127 0.014h809.008c1.077 0.17 2.32 0.268 3.585 0.268 13.322 0 24.122-10.8 24.122-24.122 0-1.265-0.097-2.507-0.285-3.72l0.017 0.135v-322.337c-0.137-0.97-0.214-2.091-0.214-3.23 0-13.489 10.935-24.424 24.424-24.424 1.139 0 2.26 0.078 3.357 0.229l-0.127-0.014z" />
<glyph unicode="&#xe95f;" glyph-name="intaefont-icon89" d="M947.595 960c-21.751 0-39.385-17.633-39.385-39.385v0-249.436c0-11.815-20.743-28.882-52.513-28.882h-724.414c-32.295 0-52.513 17.067-52.513 28.882v249.436c0 21.751-17.633 39.385-39.385 39.385s-39.385-17.633-39.385-39.385v0-249.436c0-60.39 57.764-107.651 131.282-107.651h723.889c74.043 0 131.282 47.262 131.282 107.651v249.436c0 0.001 0 0.002 0 0.004 0 21.567-17.335 39.085-38.832 39.381h-0.028zM855.173 332.997h-723.889c-73.781 0-131.282-47.262-131.282-107.651v-249.961c0-21.751 17.633-39.385 39.385-39.385s39.385 17.633 39.385 39.385v0 249.436c0 11.815 20.48 28.882 52.513 28.882h723.889c32.295 0 52.513-17.067 52.513-28.882v-249.436c0-21.751 17.633-39.385 39.385-39.385s39.385 17.633 39.385 39.385v0 249.436c0.525 60.915-57.239 108.176-131.282 108.176zM133.122 411.766c21.753 0 39.385 17.633 39.385 39.385s-17.633 39.385-39.385 39.385v0h-67.479c-21.753 0-39.385-17.633-39.385-39.385s17.633-39.385 39.385-39.385v0zM397.26 411.766c21.753 0 39.385 17.633 39.385 39.385s-17.633 39.385-39.385 39.385v0h-67.479c-21.753 0-39.385-17.633-39.385-39.385s17.633-39.385 39.385-39.385v0zM661.401 411.766c21.751 0 39.385 17.633 39.385 39.385s-17.633 39.385-39.385 39.385v0h-67.479c-21.751 0-39.385-17.633-39.385-39.385s17.633-39.385 39.385-39.385v0zM925.54 411.766c21.751 0 39.385 17.633 39.385 39.385s-17.633 39.385-39.385 39.385v0h-67.479c-21.753 0-39.385-17.633-39.385-39.385s17.633-39.385 39.385-39.385v0z" />
<glyph unicode="&#xe960;" glyph-name="scissors1" d="M280.704 476.885h114.859c17.109 0 30.848-13.867 30.848-30.848 0-8.363-3.243-15.872-8.619-21.419l0.171-0.299-78.635-78.635c-54.272-54.272-54.272-141.995 0-196.267 54.101-54.101 141.995-54.101 196.267 0 54.144 54.272 54.144 141.952 0 196.267-15.744 15.573-34.176 26.837-53.803 33.451l20.651 20.651h263.936c62.891 0 114.091 53.504 115.627 120.235 0 1.067 0.171 2.005 0 3.072-1.536 17.28-16.171 30.848-33.92 30.848h-191.488l138.283 138.283c12.629 12.629 13.44 32.512 2.304 45.781-0.768 0.939-1.536 1.536-2.304 2.304-48.085 45.952-122.24 47.616-166.656 3.243l-189.611-189.611h-33.621c9.259 18.517 14.507 39.467 14.507 61.653 0 76.629-62.123 138.752-138.752 138.752s-138.752-62.123-138.752-138.752c0-76.629 62.123-138.709 138.752-138.709zM342.4 615.637c0-34.091-27.605-61.653-61.653-61.653s-61.653 27.605-61.653 61.653 27.605 61.653 61.653 61.653 61.653-27.605 61.653-61.653zM480.981 291.072c24.064-24.064 24.064-63.061 0-87.083-24.064-24.192-63.061-24.192-87.253 0-24.064 24.064-24.064 63.061 0 87.083 24.192 24.192 63.189 24.192 87.253 0z" />
<glyph unicode="&#xe961;" glyph-name="intaefont-icon90" horiz-adv-x="960" d="M619.062 378.059c-20.402 0-36.941-16.539-36.941-36.941v0-151.95c-0.139-11.319-9.347-20.441-20.685-20.441-0.001 0-0.001 0-0.002 0h-137.173v547.709c-0.277 32.483-20.351 60.209-48.732 71.724l-0.523 0.187-176.085 65.755h362.513c0 0 0.001 0 0.002 0 11.339 0 20.547-9.122 20.685-20.427v-140.634c0-20.402 16.539-36.941 36.941-36.941s36.941 16.539 36.941 36.941v0 140.621c-0.14 52.122-42.426 94.323-94.568 94.323 0 0 0 0 0 0h-494.268c-36.995 0-66.986-29.991-66.986-66.986v0-728.719c-0.115-1.108-0.182-2.393-0.182-3.694s0.066-2.586 0.195-3.853l-0.013 0.159c-0.051-0.443-0.080-0.957-0.080-1.477s0.029-1.034 0.085-1.54l-0.006 0.062c-0.067-0.591-0.105-1.276-0.105-1.971s0.038-1.379 0.112-2.053l-0.007 0.083s1.231-1.971 1.724-3.201c0.532-1.132 1.106-2.102 1.762-3.009l-0.037 0.054c0.703-0.801 1.354-1.687 1.924-2.626l0.047-0.083 2.463-2.955 2.955-2.463 2.709-1.971c1.852-1.379 3.957-2.614 6.192-3.61l0.211-0.084 293.803-123.136c9.090-4.059 19.698-6.424 30.859-6.424 16.041 0 30.942 4.884 43.295 13.247l-0.272-0.173c21.044 14.040 34.72 37.684 34.725 64.522v49.256h137.173c0.587-0.013 1.278-0.021 1.971-0.021 51.926 0 94.053 41.961 94.321 93.825v151.975c0 20.402-16.539 36.941-36.941 36.941v0zM350.38 45.345c0.001-0.034 0.002-0.074 0.002-0.114 0-1.229-0.693-2.296-1.708-2.833l-0.018-0.008c-0.541-0.772-1.426-1.27-2.428-1.27-0.46 0-0.895 0.105-1.284 0.292l0.018-0.007-270.9 115.255v664.935l274.101-101.956c1.301-0.507 2.209-1.747 2.216-3.201v-0.001zM931.335 515.232s0 1.477 0 2.216c0 0.052 0 0.112 0 0.174 0 14.781-8.798 27.506-21.443 33.226l-0.23 0.093-127.322 127.322c-6.579 6.143-15.441 9.915-25.183 9.915-20.402 0-36.941-16.539-36.941-36.941 0-9.743 3.771-18.604 9.934-25.205l-0.020 0.022 71.665-71.665h-210.562c-20.402 0-36.941-16.539-36.941-36.941s16.539-36.941 36.941-36.941v0h218.936l-71.665-71.665c-6.735-6.656-10.907-15.893-10.907-26.105s4.171-19.449 10.903-26.101l0.004-0.004c6.498-6.689 15.576-10.839 25.625-10.839 0.169 0 0.337 0.001 0.505 0.004h-0.025c0.052 0 0.112 0 0.172 0 10.144 0 19.321 4.145 25.929 10.832l131.266 131.266c5.537 5.676 9.226 13.177 10.084 21.518l0.013 0.155c-0.094 2.061-0.358 4.005-0.781 5.888l0.042-0.224z" />
<glyph unicode="&#xe962;" glyph-name="intaefont-icon91" horiz-adv-x="965" d="M956.579 109.108c0.703 0.801 1.354 1.687 1.924 2.626l0.047 0.082c0.73 0.997 1.389 2.13 1.924 3.33l0.047 0.117 1.724 3.202v6.897c0 2.463 0 4.926 0 7.389v728.275c0 0.013 0 0.029 0 0.045 0 36.133-28.605 65.582-64.404 66.942l-0.124 0.004h-494.302c-52.040-0.14-94.189-42.288-94.329-94.315v-91.386c0-20.403 16.54-36.942 36.942-36.942s36.942 16.54 36.942 36.942v0 91.373c0 11.29 9.152 20.442 20.442 20.442v0h362.783l-178.066-66.252c-27.49-12.262-46.305-39.352-46.305-70.836 0-0.206 0.001-0.412 0.003-0.619v0.032-547.253h-138.414c-11.29 0-20.442 9.152-20.442 20.442v0 102.21c0 20.403-16.54 36.942-36.942 36.942s-36.942-16.54-36.942-36.942v0-102.702c0-52.096 42.232-94.329 94.329-94.329v0h138.414v-49.258c-0.004-0.294-0.007-0.641-0.007-0.989 0-42.317 34.097-76.67 76.317-77.085h0.039c0.063 0 0.137 0 0.211 0 10.785 0 21.042 2.266 30.32 6.347l-0.483-0.189 293.824 123.144c2.539 1.012 4.732 2.254 6.725 3.748l-0.075-0.052c0.952 0.538 1.764 1.194 2.455 1.961l0.007 0.007 2.955 2.463zM619.657 41.377c-0.549-0.387-1.233-0.619-1.971-0.619s-1.42 0.232-1.981 0.625l0.011-0.007c-0.899 0.631-1.48 1.663-1.48 2.831 0 0.044 0.001 0.087 0.003 0.13v-0.007 672.121c-0.089 0.407-0.14 0.875-0.14 1.355s0.051 0.948 0.147 1.398l-0.007-0.044 276.582 102.702v-664.979zM377.801 509.326v0c0.058 0.737 0.091 1.597 0.091 2.463s-0.033 1.726-0.097 2.576l0.007-0.112s0 1.479 0 2.216c0 0.052 0 0.112 0 0.174 0 14.782-8.799 27.508-21.444 33.228l-0.23 0.093-126.592 128.316c-6.762 7.243-16.368 11.758-27.028 11.758-20.403 0-36.942-16.54-36.942-36.942 0-10.66 4.515-20.266 11.737-27.008l0.022-0.020 71.67-71.67h-212.055c-20.403 0-36.942-16.54-36.942-36.942s16.54-36.942 36.942-36.942h218.95l-71.67-71.67c-6.735-6.657-10.907-15.894-10.907-26.106s4.171-19.45 10.904-26.103l0.004-0.004c6.498-6.689 15.577-10.84 25.626-10.84 0.169 0 0.337 0.001 0.505 0.004h-0.025c0.052 0 0.112 0 0.172 0 10.145 0 19.324 4.145 25.931 10.833l131.275 131.275c5.49 5.617 9.169 13.023 10.083 21.264l0.015 0.163z" />
<glyph unicode="&#xe963;" glyph-name="intaefont-icon92" horiz-adv-x="960" d="M814.525 608.551c-6.541 6.571-15.593 10.638-25.597 10.638-19.946 0-36.115-16.17-36.115-36.115 0-9.944 4.018-18.948 10.519-25.476l72.102-72.102h-186.506v294.42c-0.136 55.563-45.142 100.568-100.691 100.704h-447.533c-55.563-0.136-100.568-45.142-100.704-100.691v-663.844c0.136-55.563 45.142-100.568 100.691-100.704h447.533c55.563 0.136 100.568 45.142 100.704 100.691v296.596h188.669l-74.267-74.267c-6.573-6.495-10.645-15.511-10.645-25.476s4.071-18.981 10.641-25.473l0.004-0.004c6.522-6.514 15.528-10.543 25.476-10.543s18.954 4.029 25.476 10.543v0l135.073 135.073c6.573 6.495 10.645 15.511 10.645 25.476s-4.071 18.981-10.641 25.473l-0.004 0.004zM576.826 484.775h-264.377c-19.91 0-36.051-16.141-36.051-36.051s16.141-36.051 36.051-36.051v0h264.377v-296.583c0-15.796-12.806-28.599-28.599-28.599h-447.522c-15.796 0-28.599 12.806-28.599 28.599v0 663.831c0 15.796 12.806 28.599 28.599 28.599v0h447.522c15.796 0 28.599-12.806 28.599-28.599v0z" />
<glyph unicode="&#xe964;" glyph-name="intaefont-icon93" horiz-adv-x="960" d="M202.104 99.113c0.143-58.403 47.451-105.709 105.84-105.852h546.204c58.403 0.143 105.709 47.451 105.852 105.84v697.787c-0.143 58.403-47.451 105.709-105.84 105.852h-546.204c-58.403-0.143-105.709-47.451-105.852-105.84v-310.247h-164.211c-20.927 0-37.893-16.966-37.893-37.893s16.966-37.893 37.893-37.893v0h164.211zM277.892 410.86h312.002l-78.066-78.066c-6.91-6.829-11.192-16.306-11.192-26.78s4.28-19.951 11.185-26.776l0.005-0.005c6.856-6.847 16.322-11.082 26.78-11.082s19.923 4.235 26.78 11.082v0l141.98 141.98c6.91 6.829 11.192 16.306 11.192 26.78s-4.28 19.951-11.185 26.776l-0.005 0.005-141.73 141.98c-6.875 6.907-16.393 11.182-26.908 11.182-20.967 0-37.964-16.996-37.964-37.964 0-10.451 4.225-19.917 11.058-26.78l75.789-75.789h-309.727v309.473c0 16.606 13.461 30.063 30.063 30.063v0h546.19c16.606 0 30.063-13.461 30.063-30.063v-697.774c0-16.606-13.461-30.063-30.063-30.063v0h-546.19c-16.606 0-30.063 13.461-30.063 30.063v0z" />
<glyph unicode="&#xe965;" glyph-name="intaefont-icon94" horiz-adv-x="875" d="M872.004 292.198l-76.406 576.714c-1.887 26.903-14.755 50.473-34.102 66.49l-0.158 0.127c-17.391 15.118-40.234 24.367-65.235 24.472h-516.644c-0.292 0.003-0.637 0.005-0.983 0.005-25.164 0-48.111-9.496-65.452-25.099l0.089 0.079c-17.815-15.864-29.561-38.208-31.521-63.3l-0.020-0.326-79.397-583.511c-0.065-0.814-0.102-1.762-0.102-2.719s0.037-1.905 0.109-2.844l-0.008 0.124v-2.175c-0.063-0.773-0.098-1.674-0.098-2.583s0.036-1.81 0.106-2.701l-0.007 0.118s0-2.175 0-3.263 0-2.447 0-3.807v-230.033c-0.034-0.975-0.054-2.12-0.054-3.271 0-27.275 11.033-51.973 28.879-69.875l-0.003 0.003c18.167-17.736 43.003-28.711 70.402-28.822h673.806c0.029 0 0.063 0 0.096 0 27.472 0 52.294 11.349 70.033 29.614l0.023 0.024c18.144 17.949 29.38 42.849 29.38 70.374 0 0.591-0.005 1.181-0.015 1.769l0.001-0.089v233.568c0.009 0.426 0.014 0.927 0.014 1.43 0 6.948-0.998 13.662-2.86 20.008l0.126-0.502zM163.144 862.657c-0.001 0.070-0.002 0.152-0.002 0.234 0 4.418 1.881 8.396 4.886 11.177l0.010 0.009c2.85 2.649 6.666 4.293 10.865 4.35h516.634c0.148 0.004 0.322 0.007 0.496 0.007 4.984 0 9.507-1.972 12.833-5.178l-0.006 0.005c2.719-2.447 4.351-4.894 5.166-12.78l74.502-553.058h-143.295c-41.15-0.062-76.155-26.306-89.251-62.963l-0.207-0.663c-17.7-49.51-64.199-84.299-118.823-84.299s-101.123 34.79-118.548 83.421l-0.275 0.879c-13.303 37.32-48.307 63.564-89.45 63.626h-140.584zM788.529 23.282c-2.962-3.503-7.36-5.712-12.273-5.712-0.082 0-0.165 0.001-0.247 0.002h-674.588c-0.012 0-0.027 0-0.042 0-5.637 0-10.684 2.522-14.076 6.5l-0.022 0.026c-3.526 3.059-5.743 7.546-5.743 12.551 0 0.367 0.012 0.732 0.035 1.094l-0.003-0.049v188.159h147.101c0.037 0 0.081 0.001 0.124 0.001 5.599 0 10.356-3.6 12.085-8.612l0.027-0.090c28.98-81.936 105.78-139.582 196.045-139.582s167.065 57.645 195.596 138.13l0.449 1.451c1.755 5.101 6.513 8.702 12.111 8.702 0.044 0 0.087 0 0.131-0.001h147.91v-187.344c0.143-0.858 0.225-1.846 0.225-2.853 0-4.783-1.843-9.135-4.858-12.386l0.011 0.012zM282.783 776.463h312.964v-67.977h-312.964v67.977zM255.864 613.047h366.53v-67.977h-366.53v67.977zM237.918 449.36h402.422v-67.977h-402.422v67.977z" />
</font>
</defs>
</svg>
